<mxfile host="app.diagrams.net" agent="Mozilla/5.0 (Windows NT 10.0; Win64; x64) AppleWebKit/537.36 (KHTML, like Gecko) Chrome/134.0.0.0 Safari/537.36" version="26.2.5">
  <diagram name="Page-1" id="REMn5LWHs8HombECE-7a">
    <mxGraphModel dx="1784" dy="1029" grid="1" gridSize="10" guides="1" tooltips="1" connect="1" arrows="1" fold="1" page="1" pageScale="1" pageWidth="1169" pageHeight="827" math="0" shadow="0">
      <root>
        <mxCell id="0" />
        <mxCell id="1" parent="0" />
        <mxCell id="87LP5JKLMeKJegdfesxn-217" value="HX-543&lt;div&gt;(Keypad)&lt;/div&gt;" style="rounded=0;whiteSpace=wrap;html=1;strokeColor=default;fillColor=#007FFF;" parent="1" vertex="1">
          <mxGeometry y="142.25" width="100" height="190" as="geometry" />
        </mxCell>
        <mxCell id="87LP5JKLMeKJegdfesxn-218" style="edgeStyle=orthogonalEdgeStyle;rounded=0;orthogonalLoop=1;jettySize=auto;html=1;entryX=0;entryY=0.5;entryDx=0;entryDy=0;endArrow=none;startFill=0;" parent="1" source="87LP5JKLMeKJegdfesxn-219" target="87LP5JKLMeKJegdfesxn-294" edge="1">
          <mxGeometry relative="1" as="geometry" />
        </mxCell>
        <mxCell id="87LP5JKLMeKJegdfesxn-219" value="Port1" style="rounded=0;whiteSpace=wrap;html=1;strokeColor=default;fillColor=#007FFF;" parent="1" vertex="1">
          <mxGeometry x="100" y="142.25" width="30" height="10" as="geometry" />
        </mxCell>
        <mxCell id="87LP5JKLMeKJegdfesxn-220" style="edgeStyle=orthogonalEdgeStyle;rounded=0;orthogonalLoop=1;jettySize=auto;html=1;entryX=0;entryY=0.5;entryDx=0;entryDy=0;endArrow=none;startFill=0;" parent="1" source="87LP5JKLMeKJegdfesxn-221" target="87LP5JKLMeKJegdfesxn-295" edge="1">
          <mxGeometry relative="1" as="geometry" />
        </mxCell>
        <mxCell id="87LP5JKLMeKJegdfesxn-221" value="Port2" style="rounded=0;whiteSpace=wrap;html=1;strokeColor=default;fillColor=#007FFF;" parent="1" vertex="1">
          <mxGeometry x="100" y="162.25" width="30" height="10" as="geometry" />
        </mxCell>
        <mxCell id="87LP5JKLMeKJegdfesxn-222" style="edgeStyle=orthogonalEdgeStyle;rounded=0;orthogonalLoop=1;jettySize=auto;html=1;entryX=0;entryY=0.5;entryDx=0;entryDy=0;endArrow=none;startFill=0;" parent="1" source="87LP5JKLMeKJegdfesxn-223" target="87LP5JKLMeKJegdfesxn-296" edge="1">
          <mxGeometry relative="1" as="geometry" />
        </mxCell>
        <mxCell id="87LP5JKLMeKJegdfesxn-223" value="Port3" style="rounded=0;whiteSpace=wrap;html=1;strokeColor=default;fillColor=#007FFF;" parent="1" vertex="1">
          <mxGeometry x="100" y="182.25" width="30" height="10" as="geometry" />
        </mxCell>
        <mxCell id="87LP5JKLMeKJegdfesxn-224" style="edgeStyle=orthogonalEdgeStyle;rounded=0;orthogonalLoop=1;jettySize=auto;html=1;entryX=0;entryY=0.5;entryDx=0;entryDy=0;endArrow=none;startFill=0;" parent="1" source="87LP5JKLMeKJegdfesxn-225" target="87LP5JKLMeKJegdfesxn-297" edge="1">
          <mxGeometry relative="1" as="geometry" />
        </mxCell>
        <mxCell id="87LP5JKLMeKJegdfesxn-225" value="Port4" style="rounded=0;whiteSpace=wrap;html=1;strokeColor=default;fillColor=#007FFF;" parent="1" vertex="1">
          <mxGeometry x="100" y="202.25" width="30" height="10" as="geometry" />
        </mxCell>
        <mxCell id="87LP5JKLMeKJegdfesxn-226" style="edgeStyle=orthogonalEdgeStyle;rounded=0;orthogonalLoop=1;jettySize=auto;html=1;entryX=0;entryY=0.5;entryDx=0;entryDy=0;endArrow=none;startFill=0;" parent="1" source="87LP5JKLMeKJegdfesxn-227" target="87LP5JKLMeKJegdfesxn-298" edge="1">
          <mxGeometry relative="1" as="geometry" />
        </mxCell>
        <mxCell id="87LP5JKLMeKJegdfesxn-227" value="Port5" style="rounded=0;whiteSpace=wrap;html=1;strokeColor=default;fillColor=#007FFF;" parent="1" vertex="1">
          <mxGeometry x="100" y="222.25" width="30" height="10" as="geometry" />
        </mxCell>
        <mxCell id="87LP5JKLMeKJegdfesxn-228" style="edgeStyle=orthogonalEdgeStyle;rounded=0;orthogonalLoop=1;jettySize=auto;html=1;entryX=0;entryY=0.5;entryDx=0;entryDy=0;endArrow=none;startFill=0;" parent="1" source="87LP5JKLMeKJegdfesxn-229" target="87LP5JKLMeKJegdfesxn-299" edge="1">
          <mxGeometry relative="1" as="geometry" />
        </mxCell>
        <mxCell id="87LP5JKLMeKJegdfesxn-229" value="Port6" style="rounded=0;whiteSpace=wrap;html=1;strokeColor=default;fillColor=#007FFF;" parent="1" vertex="1">
          <mxGeometry x="100" y="242.25" width="30" height="10" as="geometry" />
        </mxCell>
        <mxCell id="87LP5JKLMeKJegdfesxn-230" style="edgeStyle=orthogonalEdgeStyle;rounded=0;orthogonalLoop=1;jettySize=auto;html=1;entryX=0;entryY=0.5;entryDx=0;entryDy=0;endArrow=none;startFill=0;" parent="1" source="87LP5JKLMeKJegdfesxn-231" target="87LP5JKLMeKJegdfesxn-300" edge="1">
          <mxGeometry relative="1" as="geometry" />
        </mxCell>
        <mxCell id="87LP5JKLMeKJegdfesxn-231" value="Port7" style="rounded=0;whiteSpace=wrap;html=1;strokeColor=default;fillColor=#007FFF;" parent="1" vertex="1">
          <mxGeometry x="100" y="262.25" width="30" height="10" as="geometry" />
        </mxCell>
        <mxCell id="87LP5JKLMeKJegdfesxn-232" style="edgeStyle=orthogonalEdgeStyle;rounded=0;orthogonalLoop=1;jettySize=auto;html=1;entryX=0;entryY=0.5;entryDx=0;entryDy=0;endArrow=none;startFill=0;" parent="1" source="87LP5JKLMeKJegdfesxn-233" target="87LP5JKLMeKJegdfesxn-301" edge="1">
          <mxGeometry relative="1" as="geometry" />
        </mxCell>
        <mxCell id="87LP5JKLMeKJegdfesxn-233" value="Port8" style="rounded=0;whiteSpace=wrap;html=1;strokeColor=default;fillColor=#007FFF;" parent="1" vertex="1">
          <mxGeometry x="100" y="282.25" width="30" height="10" as="geometry" />
        </mxCell>
        <mxCell id="87LP5JKLMeKJegdfesxn-234" value="MSP430FR2355&lt;div&gt;(With 8kb of ram)&lt;/div&gt;" style="rounded=0;whiteSpace=wrap;html=1;strokeColor=default;fillColor=#007FFF;" parent="1" vertex="1">
          <mxGeometry x="200" y="115" width="140" height="308.87" as="geometry" />
        </mxCell>
        <mxCell id="87LP5JKLMeKJegdfesxn-235" value="LTA-1000R&lt;div&gt;(10 segment display)&lt;/div&gt;" style="rounded=0;whiteSpace=wrap;html=1;strokeColor=none;fillColor=light-dark(#CC0000,#CC0000);rotation=0;fontColor=light-dark(#FFFFFF,#FFFFFF);labelBorderColor=none;fontStyle=0;fontSize=11;" parent="1" vertex="1">
          <mxGeometry x="1005.63" y="516.75" width="160" height="60" as="geometry" />
        </mxCell>
        <mxCell id="87LP5JKLMeKJegdfesxn-236" value="&lt;font style=&quot;&quot;&gt;4116R-LF&lt;br&gt;&lt;/font&gt;&lt;div&gt;&lt;font style=&quot;&quot;&gt;(Resistor Network)&lt;span style=&quot;font-family: monospace; font-size: 0px; text-align: start; text-wrap-mode: nowrap; background-color: transparent;&quot;&gt;%3CmxGraphModel%3E%3Croot%3E%3CmxCell%20id%3D%220%22%2F%3E%3CmxCell%20id%3D%221%22%20parent%3D%220%22%2F%3E%3CmxCell%20id%3D%222%22%20value%3D%22HX-543%26lt%3Bdiv%26gt%3B(Keypad)%26lt%3B%2Fdiv%26gt%3B%22%20style%3D%22rounded%3D0%3BwhiteSpace%3Dwrap%3Bhtml%3D1%3BstrokeColor%3Dnone%3BfillColor%3D%23007FFF%3B%22%20vertex%3D%221%22%20parent%3D%221%22%3E%3CmxGeometry%20x%3D%22130%22%20y%3D%22130%22%20width%3D%22170%22%20height%3D%22190%22%20as%3D%22geometry%22%2F%3E%3C%2FmxCell%3E%3C%2Froot%3E%3C%2FmxGraphModel%3E&lt;/span&gt;&lt;/font&gt;&lt;/div&gt;" style="rounded=0;whiteSpace=wrap;html=1;strokeColor=none;fillColor=light-dark(#000000,#FFFFFF);rotation=0;fontColor=light-dark(#FFFFFF,#000000);" parent="1" vertex="1">
          <mxGeometry x="994.6899999999999" y="691.75" width="160" height="40" as="geometry" />
        </mxCell>
        <mxCell id="87LP5JKLMeKJegdfesxn-237" value="" style="pointerEvents=1;verticalLabelPosition=bottom;shadow=0;dashed=0;align=center;html=1;verticalAlign=top;shape=mxgraph.electrical.signal_sources.signal_ground;" parent="1" vertex="1">
          <mxGeometry x="312.5" y="459" width="45" height="30" as="geometry" />
        </mxCell>
        <mxCell id="87LP5JKLMeKJegdfesxn-238" value="P7" style="rounded=0;whiteSpace=wrap;html=1;strokeColor=default;fillColor=#007FFF;rotation=90;" parent="1" vertex="1">
          <mxGeometry x="317.5" y="437" width="35" height="10" as="geometry" />
        </mxCell>
        <mxCell id="87LP5JKLMeKJegdfesxn-239" value="" style="pointerEvents=1;verticalLabelPosition=bottom;shadow=0;dashed=0;align=center;html=1;verticalAlign=top;shape=mxgraph.electrical.signal_sources.signal_ground;fontColor=light-dark(#FFFFFF,#000000);" parent="1" vertex="1">
          <mxGeometry x="1055.94" y="796.75" width="45" height="30" as="geometry" />
        </mxCell>
        <mxCell id="87LP5JKLMeKJegdfesxn-240" value="" style="shape=or;whiteSpace=wrap;html=1;fontColor=light-dark(#FFFFFF,#000000);" parent="1" vertex="1">
          <mxGeometry x="995.9399999999999" y="701.75" width="10" height="20" as="geometry" />
        </mxCell>
        <mxCell id="87LP5JKLMeKJegdfesxn-241" value="PIN1" style="rounded=0;whiteSpace=wrap;html=1;strokeColor=none;fillColor=light-dark(#CC0000,#CC0000);rotation=90;fontColor=light-dark(#FFFFFF,#FFFFFF);labelBorderColor=none;fontStyle=0;fontSize=11;" parent="1" vertex="1">
          <mxGeometry x="1145.63" y="499" width="30" height="10" as="geometry" />
        </mxCell>
        <mxCell id="87LP5JKLMeKJegdfesxn-242" value="" style="verticalLabelPosition=bottom;verticalAlign=top;html=1;shape=mxgraph.basic.orthogonal_triangle;strokeColor=default;fillColor=default;fontColor=light-dark(#FFFFFF,#FFFFFF);rotation=-180;" parent="1" vertex="1">
          <mxGeometry x="1155.63" y="516.75" width="10" height="17.75" as="geometry" />
        </mxCell>
        <mxCell id="87LP5JKLMeKJegdfesxn-243" value="PIN2" style="rounded=0;whiteSpace=wrap;html=1;strokeColor=none;fillColor=light-dark(#CC0000,#CC0000);rotation=90;fontColor=light-dark(#FFFFFF,#FFFFFF);labelBorderColor=none;fontStyle=0;fontSize=11;" parent="1" vertex="1">
          <mxGeometry x="1126.88" y="499" width="30" height="10" as="geometry" />
        </mxCell>
        <mxCell id="87LP5JKLMeKJegdfesxn-244" value="PIN3" style="rounded=0;whiteSpace=wrap;html=1;strokeColor=none;fillColor=light-dark(#CC0000,#CC0000);rotation=90;fontColor=light-dark(#FFFFFF,#FFFFFF);labelBorderColor=none;fontStyle=0;fontSize=11;" parent="1" vertex="1">
          <mxGeometry x="1110.63" y="499" width="30" height="10" as="geometry" />
        </mxCell>
        <mxCell id="87LP5JKLMeKJegdfesxn-245" value="PIN4" style="rounded=0;whiteSpace=wrap;html=1;strokeColor=none;fillColor=light-dark(#CC0000,#CC0000);rotation=90;fontColor=light-dark(#FFFFFF,#FFFFFF);labelBorderColor=none;fontStyle=0;fontSize=11;" parent="1" vertex="1">
          <mxGeometry x="1093.13" y="499" width="30" height="10" as="geometry" />
        </mxCell>
        <mxCell id="87LP5JKLMeKJegdfesxn-246" value="PIN5" style="rounded=0;whiteSpace=wrap;html=1;strokeColor=none;fillColor=light-dark(#CC0000,#CC0000);rotation=90;fontColor=light-dark(#FFFFFF,#FFFFFF);labelBorderColor=none;fontStyle=0;fontSize=11;" parent="1" vertex="1">
          <mxGeometry x="1078.13" y="499" width="30" height="10" as="geometry" />
        </mxCell>
        <mxCell id="87LP5JKLMeKJegdfesxn-247" value="PIN6" style="rounded=0;whiteSpace=wrap;html=1;strokeColor=none;fillColor=light-dark(#CC0000,#CC0000);rotation=90;fontColor=light-dark(#FFFFFF,#FFFFFF);labelBorderColor=none;fontStyle=0;fontSize=11;" parent="1" vertex="1">
          <mxGeometry x="1063.13" y="499" width="30" height="10" as="geometry" />
        </mxCell>
        <mxCell id="87LP5JKLMeKJegdfesxn-248" value="PIN7" style="rounded=0;whiteSpace=wrap;html=1;strokeColor=none;fillColor=light-dark(#CC0000,#CC0000);rotation=90;fontColor=light-dark(#FFFFFF,#FFFFFF);labelBorderColor=none;fontStyle=0;fontSize=11;" parent="1" vertex="1">
          <mxGeometry x="1046.88" y="499" width="30" height="10" as="geometry" />
        </mxCell>
        <mxCell id="87LP5JKLMeKJegdfesxn-249" value="PIN8" style="rounded=0;whiteSpace=wrap;html=1;strokeColor=none;fillColor=light-dark(#CC0000,#CC0000);rotation=90;fontColor=light-dark(#FFFFFF,#FFFFFF);labelBorderColor=none;fontStyle=0;fontSize=11;" parent="1" vertex="1">
          <mxGeometry x="1029.38" y="499" width="30" height="10" as="geometry" />
        </mxCell>
        <mxCell id="87LP5JKLMeKJegdfesxn-250" value="PIN9" style="rounded=0;whiteSpace=wrap;html=1;strokeColor=none;fillColor=light-dark(#CC0000,#CC0000);rotation=90;fontColor=light-dark(#FFFFFF,#FFFFFF);labelBorderColor=none;fontStyle=0;fontSize=11;" parent="1" vertex="1">
          <mxGeometry x="1011.5599999999998" y="499" width="30" height="10" as="geometry" />
        </mxCell>
        <mxCell id="87LP5JKLMeKJegdfesxn-251" value="PIN10" style="rounded=0;whiteSpace=wrap;html=1;strokeColor=none;fillColor=light-dark(#CC0000,#CC0000);rotation=90;fontColor=light-dark(#FFFFFF,#FFFFFF);labelBorderColor=none;fontStyle=0;fontSize=11;" parent="1" vertex="1">
          <mxGeometry x="996.88" y="499" width="32.5" height="10" as="geometry" />
        </mxCell>
        <mxCell id="87LP5JKLMeKJegdfesxn-252" value="PIN20" style="rounded=0;whiteSpace=wrap;html=1;strokeColor=none;fillColor=light-dark(#CC0000,#CC0000);rotation=90;fontColor=light-dark(#FFFFFF,#FFFFFF);labelBorderColor=none;fontStyle=0;fontSize=11;" parent="1" vertex="1">
          <mxGeometry x="1136.88" y="586.75" width="40" height="10" as="geometry" />
        </mxCell>
        <mxCell id="87LP5JKLMeKJegdfesxn-253" value="PIN19" style="rounded=0;whiteSpace=wrap;html=1;strokeColor=none;fillColor=light-dark(#CC0000,#CC0000);rotation=90;fontColor=light-dark(#FFFFFF,#FFFFFF);labelBorderColor=none;fontStyle=0;fontSize=11;" parent="1" vertex="1">
          <mxGeometry x="1123.13" y="586.75" width="37.5" height="10" as="geometry" />
        </mxCell>
        <mxCell id="87LP5JKLMeKJegdfesxn-254" value="PIN18" style="rounded=0;whiteSpace=wrap;html=1;strokeColor=none;fillColor=light-dark(#CC0000,#CC0000);rotation=90;fontColor=light-dark(#FFFFFF,#FFFFFF);labelBorderColor=none;fontStyle=0;fontSize=11;" parent="1" vertex="1">
          <mxGeometry x="1107.5099999999998" y="586.75" width="35" height="10" as="geometry" />
        </mxCell>
        <mxCell id="87LP5JKLMeKJegdfesxn-255" value="PIN17" style="rounded=0;whiteSpace=wrap;html=1;strokeColor=none;fillColor=light-dark(#CC0000,#CC0000);rotation=90;fontColor=light-dark(#FFFFFF,#FFFFFF);labelBorderColor=none;fontStyle=0;fontSize=11;" parent="1" vertex="1">
          <mxGeometry x="1089.38" y="586.75" width="40" height="10" as="geometry" />
        </mxCell>
        <mxCell id="87LP5JKLMeKJegdfesxn-256" value="PIN16" style="rounded=0;whiteSpace=wrap;html=1;strokeColor=none;fillColor=light-dark(#CC0000,#CC0000);rotation=90;fontColor=light-dark(#FFFFFF,#FFFFFF);labelBorderColor=none;fontStyle=0;fontSize=11;" parent="1" vertex="1">
          <mxGeometry x="1076.88" y="586.75" width="35" height="10" as="geometry" />
        </mxCell>
        <mxCell id="87LP5JKLMeKJegdfesxn-257" value="PIN15" style="rounded=0;whiteSpace=wrap;html=1;strokeColor=none;fillColor=light-dark(#CC0000,#CC0000);rotation=90;fontColor=light-dark(#FFFFFF,#FFFFFF);labelBorderColor=none;fontStyle=0;fontSize=11;" parent="1" vertex="1">
          <mxGeometry x="1059.38" y="586.75" width="38.75" height="10" as="geometry" />
        </mxCell>
        <mxCell id="87LP5JKLMeKJegdfesxn-258" value="PIN14" style="rounded=0;whiteSpace=wrap;html=1;strokeColor=none;fillColor=light-dark(#CC0000,#CC0000);rotation=90;fontColor=light-dark(#FFFFFF,#FFFFFF);labelBorderColor=none;fontStyle=0;fontSize=11;" parent="1" vertex="1">
          <mxGeometry x="1044.38" y="586.75" width="35" height="10" as="geometry" />
        </mxCell>
        <mxCell id="87LP5JKLMeKJegdfesxn-259" value="PIN13" style="rounded=0;whiteSpace=wrap;html=1;strokeColor=none;fillColor=light-dark(#CC0000,#CC0000);rotation=90;fontColor=light-dark(#FFFFFF,#FFFFFF);labelBorderColor=none;fontStyle=0;fontSize=11;" parent="1" vertex="1">
          <mxGeometry x="1026.88" y="586.75" width="32.5" height="10" as="geometry" />
        </mxCell>
        <mxCell id="87LP5JKLMeKJegdfesxn-260" value="PIN12" style="rounded=0;whiteSpace=wrap;html=1;strokeColor=none;fillColor=light-dark(#CC0000,#CC0000);rotation=90;fontColor=light-dark(#FFFFFF,#FFFFFF);labelBorderColor=none;fontStyle=0;fontSize=11;" parent="1" vertex="1">
          <mxGeometry x="1006.88" y="586.75" width="37.5" height="10" as="geometry" />
        </mxCell>
        <mxCell id="87LP5JKLMeKJegdfesxn-261" value="PIN11" style="rounded=0;whiteSpace=wrap;html=1;strokeColor=none;fillColor=light-dark(#CC0000,#CC0000);rotation=90;fontColor=light-dark(#FFFFFF,#FFFFFF);labelBorderColor=none;fontStyle=0;fontSize=11;" parent="1" vertex="1">
          <mxGeometry x="994.38" y="586.75" width="32.5" height="10" as="geometry" />
        </mxCell>
        <mxCell id="87LP5JKLMeKJegdfesxn-262" value="PIN2" style="rounded=0;whiteSpace=wrap;html=1;strokeColor=none;fillColor=light-dark(#000000,#FFFFFF);rotation=90;fontColor=light-dark(#FFFFFF,#000000);labelBorderColor=none;fontStyle=0;fontSize=11;" parent="1" vertex="1">
          <mxGeometry x="1003.4399999999999" y="736.91" width="34.68" height="10" as="geometry" />
        </mxCell>
        <mxCell id="87LP5JKLMeKJegdfesxn-263" value="PIN1" style="rounded=0;whiteSpace=wrap;html=1;strokeColor=none;fillColor=light-dark(#000000,#FFFFFF);rotation=90;fontColor=light-dark(#FFFFFF,#000000);labelBorderColor=none;fontStyle=0;fontSize=11;" parent="1" vertex="1">
          <mxGeometry x="983.5999999999998" y="736.91" width="34.68" height="10" as="geometry" />
        </mxCell>
        <mxCell id="87LP5JKLMeKJegdfesxn-264" value="PIN10" style="rounded=0;whiteSpace=wrap;html=1;strokeColor=none;fillColor=light-dark(#000000,#FFFFFF);rotation=90;fontColor=light-dark(#FFFFFF,#000000);labelBorderColor=none;fontStyle=0;fontSize=11;" parent="1" vertex="1">
          <mxGeometry x="1108.1299999999997" y="674.56" width="36.88" height="10" as="geometry" />
        </mxCell>
        <mxCell id="87LP5JKLMeKJegdfesxn-265" value="PIN11" style="rounded=0;whiteSpace=wrap;html=1;strokeColor=none;fillColor=light-dark(#000000,#FFFFFF);rotation=90;fontColor=light-dark(#FFFFFF,#000000);labelBorderColor=none;fontStyle=0;fontSize=11;" parent="1" vertex="1">
          <mxGeometry x="1087.5" y="674.56" width="36.88" height="10" as="geometry" />
        </mxCell>
        <mxCell id="87LP5JKLMeKJegdfesxn-266" value="PIN12" style="rounded=0;whiteSpace=wrap;html=1;strokeColor=none;fillColor=light-dark(#000000,#FFFFFF);rotation=90;fontColor=light-dark(#FFFFFF,#000000);labelBorderColor=none;fontStyle=0;fontSize=11;" parent="1" vertex="1">
          <mxGeometry x="1067.19" y="674.56" width="36.88" height="10" as="geometry" />
        </mxCell>
        <mxCell id="87LP5JKLMeKJegdfesxn-267" value="PIN13" style="rounded=0;whiteSpace=wrap;html=1;strokeColor=none;fillColor=light-dark(#000000,#FFFFFF);rotation=90;fontColor=light-dark(#FFFFFF,#000000);labelBorderColor=none;fontStyle=0;fontSize=11;" parent="1" vertex="1">
          <mxGeometry x="1044.06" y="674.5600000000001" width="36.88" height="10" as="geometry" />
        </mxCell>
        <mxCell id="87LP5JKLMeKJegdfesxn-268" value="PIN14" style="rounded=0;whiteSpace=wrap;html=1;strokeColor=none;fillColor=light-dark(#000000,#FFFFFF);rotation=90;fontColor=light-dark(#FFFFFF,#000000);labelBorderColor=none;fontStyle=0;fontSize=11;" parent="1" vertex="1">
          <mxGeometry x="1020.63" y="674.56" width="36.88" height="10" as="geometry" />
        </mxCell>
        <mxCell id="87LP5JKLMeKJegdfesxn-269" value="PIN15" style="rounded=0;whiteSpace=wrap;html=1;strokeColor=none;fillColor=light-dark(#000000,#FFFFFF);rotation=90;fontColor=light-dark(#FFFFFF,#000000);labelBorderColor=none;fontStyle=0;fontSize=11;" parent="1" vertex="1">
          <mxGeometry x="999.38" y="675.81" width="39.38" height="10" as="geometry" />
        </mxCell>
        <mxCell id="87LP5JKLMeKJegdfesxn-270" value="PIN16" style="rounded=0;whiteSpace=wrap;html=1;strokeColor=none;fillColor=light-dark(#000000,#FFFFFF);rotation=90;fontColor=light-dark(#FFFFFF,#000000);labelBorderColor=none;fontStyle=0;fontSize=11;" parent="1" vertex="1">
          <mxGeometry x="979.9999999999999" y="674.56" width="36.88" height="10" as="geometry" />
        </mxCell>
        <mxCell id="87LP5JKLMeKJegdfesxn-271" value="PIN9" style="rounded=0;whiteSpace=wrap;html=1;strokeColor=none;fillColor=light-dark(#000000,#FFFFFF);rotation=90;fontColor=light-dark(#FFFFFF,#000000);labelBorderColor=none;fontStyle=0;fontSize=11;" parent="1" vertex="1">
          <mxGeometry x="1128.44" y="674.56" width="36.88" height="10" as="geometry" />
        </mxCell>
        <mxCell id="87LP5JKLMeKJegdfesxn-272" value="PIN2" style="rounded=0;whiteSpace=wrap;html=1;strokeColor=none;fillColor=light-dark(#000000,#FFFFFF);rotation=90;fontColor=light-dark(#FFFFFF,#000000);labelBorderColor=none;fontStyle=0;fontSize=11;" parent="1" vertex="1">
          <mxGeometry x="1046.2599999999998" y="736.91" width="34.68" height="10" as="geometry" />
        </mxCell>
        <mxCell id="87LP5JKLMeKJegdfesxn-273" value="PIN1" style="rounded=0;whiteSpace=wrap;html=1;strokeColor=none;fillColor=light-dark(#000000,#FFFFFF);rotation=90;fontColor=light-dark(#FFFFFF,#000000);labelBorderColor=none;fontStyle=0;fontSize=11;" parent="1" vertex="1">
          <mxGeometry x="1021.8799999999998" y="736.91" width="34.68" height="10" as="geometry" />
        </mxCell>
        <mxCell id="87LP5JKLMeKJegdfesxn-274" value="PIN2" style="rounded=0;whiteSpace=wrap;html=1;strokeColor=none;fillColor=light-dark(#000000,#FFFFFF);rotation=90;fontColor=light-dark(#FFFFFF,#000000);labelBorderColor=none;fontStyle=0;fontSize=11;" parent="1" vertex="1">
          <mxGeometry x="1088.44" y="736.91" width="34.68" height="10" as="geometry" />
        </mxCell>
        <mxCell id="87LP5JKLMeKJegdfesxn-275" value="PIN1" style="rounded=0;whiteSpace=wrap;html=1;strokeColor=none;fillColor=light-dark(#000000,#FFFFFF);rotation=90;fontColor=light-dark(#FFFFFF,#000000);labelBorderColor=none;fontStyle=0;fontSize=11;" parent="1" vertex="1">
          <mxGeometry x="1068.29" y="736.75" width="34.68" height="10" as="geometry" />
        </mxCell>
        <mxCell id="87LP5JKLMeKJegdfesxn-276" value="PIN2" style="rounded=0;whiteSpace=wrap;html=1;strokeColor=none;fillColor=light-dark(#000000,#FFFFFF);rotation=90;fontColor=light-dark(#FFFFFF,#000000);labelBorderColor=none;fontStyle=0;fontSize=11;" parent="1" vertex="1">
          <mxGeometry x="1130.6399999999999" y="736.91" width="34.68" height="10" as="geometry" />
        </mxCell>
        <mxCell id="87LP5JKLMeKJegdfesxn-277" value="PIN1" style="rounded=0;whiteSpace=wrap;html=1;strokeColor=none;fillColor=light-dark(#000000,#FFFFFF);rotation=90;fontColor=light-dark(#FFFFFF,#000000);labelBorderColor=none;fontStyle=0;fontSize=11;" parent="1" vertex="1">
          <mxGeometry x="1108.44" y="736.91" width="34.68" height="10" as="geometry" />
        </mxCell>
        <mxCell id="87LP5JKLMeKJegdfesxn-278" value="" style="endArrow=none;html=1;rounded=0;exitX=0.5;exitY=0;exitDx=0;exitDy=0;exitPerimeter=0;fontColor=light-dark(#FFFFFF,#000000);" parent="1" source="87LP5JKLMeKJegdfesxn-239" edge="1">
          <mxGeometry width="50" height="50" relative="1" as="geometry">
            <mxPoint x="1068.44" y="786.75" as="sourcePoint" />
            <mxPoint x="1148.44" y="756.75" as="targetPoint" />
            <Array as="points">
              <mxPoint x="1078.44" y="786.75" />
              <mxPoint x="1148.44" y="786.75" />
            </Array>
          </mxGeometry>
        </mxCell>
        <mxCell id="87LP5JKLMeKJegdfesxn-279" value="" style="endArrow=none;html=1;rounded=0;exitX=1;exitY=0.75;exitDx=0;exitDy=0;fontColor=light-dark(#FFFFFF,#000000);" parent="1" source="87LP5JKLMeKJegdfesxn-263" edge="1">
          <mxGeometry width="50" height="50" relative="1" as="geometry">
            <mxPoint x="998.4399999999999" y="766.75" as="sourcePoint" />
            <mxPoint x="1078.44" y="786.75" as="targetPoint" />
            <Array as="points">
              <mxPoint x="998.4399999999999" y="786.75" />
            </Array>
          </mxGeometry>
        </mxCell>
        <mxCell id="87LP5JKLMeKJegdfesxn-280" value="" style="endArrow=none;html=1;rounded=0;fontColor=light-dark(#FFFFFF,#000000);" parent="1" edge="1">
          <mxGeometry width="50" height="50" relative="1" as="geometry">
            <mxPoint x="1020.63" y="786.75" as="sourcePoint" />
            <mxPoint x="1020.63" y="756.75" as="targetPoint" />
          </mxGeometry>
        </mxCell>
        <mxCell id="87LP5JKLMeKJegdfesxn-281" value="" style="endArrow=none;html=1;rounded=0;fontColor=light-dark(#FFFFFF,#000000);" parent="1" edge="1">
          <mxGeometry width="50" height="50" relative="1" as="geometry">
            <mxPoint x="1037.96" y="786.75" as="sourcePoint" />
            <mxPoint x="1037.96" y="756.75" as="targetPoint" />
          </mxGeometry>
        </mxCell>
        <mxCell id="87LP5JKLMeKJegdfesxn-282" value="" style="endArrow=none;html=1;rounded=0;fontColor=light-dark(#FFFFFF,#000000);" parent="1" edge="1">
          <mxGeometry width="50" height="50" relative="1" as="geometry">
            <mxPoint x="1063.4499999999998" y="786.75" as="sourcePoint" />
            <mxPoint x="1063.4499999999998" y="756.75" as="targetPoint" />
          </mxGeometry>
        </mxCell>
        <mxCell id="87LP5JKLMeKJegdfesxn-283" value="" style="endArrow=none;html=1;rounded=0;fontColor=light-dark(#FFFFFF,#000000);" parent="1" edge="1">
          <mxGeometry width="50" height="50" relative="1" as="geometry">
            <mxPoint x="1085.5500000000002" y="786.75" as="sourcePoint" />
            <mxPoint x="1085.5500000000002" y="756.75" as="targetPoint" />
          </mxGeometry>
        </mxCell>
        <mxCell id="87LP5JKLMeKJegdfesxn-284" value="" style="endArrow=none;html=1;rounded=0;fontColor=light-dark(#FFFFFF,#000000);" parent="1" edge="1">
          <mxGeometry width="50" height="50" relative="1" as="geometry">
            <mxPoint x="1105.94" y="786.75" as="sourcePoint" />
            <mxPoint x="1105.94" y="756.75" as="targetPoint" />
          </mxGeometry>
        </mxCell>
        <mxCell id="87LP5JKLMeKJegdfesxn-285" value="" style="endArrow=none;html=1;rounded=0;fontColor=light-dark(#FFFFFF,#000000);" parent="1" edge="1">
          <mxGeometry width="50" height="50" relative="1" as="geometry">
            <mxPoint x="1125.6999999999998" y="786.75" as="sourcePoint" />
            <mxPoint x="1125.6999999999998" y="756.75" as="targetPoint" />
          </mxGeometry>
        </mxCell>
        <mxCell id="87LP5JKLMeKJegdfesxn-286" value="" style="endArrow=none;html=1;rounded=0;exitX=0;exitY=0.5;exitDx=0;exitDy=0;entryX=1;entryY=0.5;entryDx=0;entryDy=0;" parent="1" source="87LP5JKLMeKJegdfesxn-270" target="87LP5JKLMeKJegdfesxn-261" edge="1">
          <mxGeometry width="50" height="50" relative="1" as="geometry">
            <mxPoint x="996.2599999999999" y="656.75" as="sourcePoint" />
            <mxPoint x="998.4399999999999" y="606.75" as="targetPoint" />
          </mxGeometry>
        </mxCell>
        <mxCell id="87LP5JKLMeKJegdfesxn-287" value="" style="endArrow=none;html=1;rounded=0;exitX=0;exitY=0.5;exitDx=0;exitDy=0;entryX=1;entryY=0.5;entryDx=0;entryDy=0;" parent="1" source="87LP5JKLMeKJegdfesxn-269" target="87LP5JKLMeKJegdfesxn-260" edge="1">
          <mxGeometry width="50" height="50" relative="1" as="geometry">
            <mxPoint x="1019.2799999999999" y="666.75" as="sourcePoint" />
            <mxPoint x="1018.4399999999999" y="606.75" as="targetPoint" />
          </mxGeometry>
        </mxCell>
        <mxCell id="87LP5JKLMeKJegdfesxn-288" value="" style="endArrow=none;html=1;rounded=0;exitX=0;exitY=0.5;exitDx=0;exitDy=0;entryX=1;entryY=0.5;entryDx=0;entryDy=0;" parent="1" source="87LP5JKLMeKJegdfesxn-268" target="87LP5JKLMeKJegdfesxn-259" edge="1">
          <mxGeometry width="50" height="50" relative="1" as="geometry">
            <mxPoint x="1039.94" y="660.75" as="sourcePoint" />
            <mxPoint x="1039.94" y="606.75" as="targetPoint" />
          </mxGeometry>
        </mxCell>
        <mxCell id="87LP5JKLMeKJegdfesxn-289" value="" style="endArrow=none;html=1;rounded=0;exitX=0;exitY=0.5;exitDx=0;exitDy=0;entryX=1;entryY=0.5;entryDx=0;entryDy=0;" parent="1" source="87LP5JKLMeKJegdfesxn-267" target="87LP5JKLMeKJegdfesxn-258" edge="1">
          <mxGeometry width="50" height="50" relative="1" as="geometry">
            <mxPoint x="1060.94" y="660.75" as="sourcePoint" />
            <mxPoint x="1062.44" y="606.75" as="targetPoint" />
          </mxGeometry>
        </mxCell>
        <mxCell id="87LP5JKLMeKJegdfesxn-290" value="" style="endArrow=none;html=1;rounded=0;exitX=0;exitY=0.5;exitDx=0;exitDy=0;entryX=1;entryY=0.5;entryDx=0;entryDy=0;" parent="1" source="87LP5JKLMeKJegdfesxn-266" target="87LP5JKLMeKJegdfesxn-257" edge="1">
          <mxGeometry width="50" height="50" relative="1" as="geometry">
            <mxPoint x="1085.5899999999997" y="660.75" as="sourcePoint" />
            <mxPoint x="1085.5899999999997" y="606.75" as="targetPoint" />
          </mxGeometry>
        </mxCell>
        <mxCell id="87LP5JKLMeKJegdfesxn-291" value="" style="endArrow=none;html=1;rounded=0;exitX=0;exitY=0.5;exitDx=0;exitDy=0;entryX=1;entryY=0.5;entryDx=0;entryDy=0;" parent="1" source="87LP5JKLMeKJegdfesxn-265" target="87LP5JKLMeKJegdfesxn-256" edge="1">
          <mxGeometry width="50" height="50" relative="1" as="geometry">
            <mxPoint x="1105.44" y="656.75" as="sourcePoint" />
            <mxPoint x="1105.44" y="606.75" as="targetPoint" />
          </mxGeometry>
        </mxCell>
        <mxCell id="87LP5JKLMeKJegdfesxn-292" value="" style="endArrow=none;html=1;rounded=0;exitX=0;exitY=0.5;exitDx=0;exitDy=0;entryX=1;entryY=0.5;entryDx=0;entryDy=0;" parent="1" target="87LP5JKLMeKJegdfesxn-255" edge="1">
          <mxGeometry width="50" height="50" relative="1" as="geometry">
            <mxPoint x="1126.5700000000002" y="661.1199999999998" as="sourcePoint" />
            <mxPoint x="1126.44" y="606.75" as="targetPoint" />
          </mxGeometry>
        </mxCell>
        <mxCell id="87LP5JKLMeKJegdfesxn-293" value="" style="endArrow=none;html=1;rounded=0;exitX=0;exitY=0.5;exitDx=0;exitDy=0;entryX=1;entryY=0.5;entryDx=0;entryDy=0;" parent="1" source="87LP5JKLMeKJegdfesxn-271" target="87LP5JKLMeKJegdfesxn-254" edge="1">
          <mxGeometry width="50" height="50" relative="1" as="geometry">
            <mxPoint x="1146.94" y="658.9399999999998" as="sourcePoint" />
            <mxPoint x="1148.44" y="606.75" as="targetPoint" />
          </mxGeometry>
        </mxCell>
        <mxCell id="87LP5JKLMeKJegdfesxn-294" value="P1.0" style="rounded=0;whiteSpace=wrap;html=1;strokeColor=default;fillColor=#007FFF;" parent="1" vertex="1">
          <mxGeometry x="170" y="142.25" width="30" height="10" as="geometry" />
        </mxCell>
        <mxCell id="87LP5JKLMeKJegdfesxn-295" value="P1.1" style="rounded=0;whiteSpace=wrap;html=1;strokeColor=default;fillColor=#007FFF;" parent="1" vertex="1">
          <mxGeometry x="170" y="162.25" width="30" height="10" as="geometry" />
        </mxCell>
        <mxCell id="87LP5JKLMeKJegdfesxn-296" value="P1.2" style="rounded=0;whiteSpace=wrap;html=1;strokeColor=default;fillColor=#007FFF;" parent="1" vertex="1">
          <mxGeometry x="170" y="182.25" width="30" height="10" as="geometry" />
        </mxCell>
        <mxCell id="87LP5JKLMeKJegdfesxn-297" value="P1.3" style="rounded=0;whiteSpace=wrap;html=1;strokeColor=default;fillColor=#007FFF;" parent="1" vertex="1">
          <mxGeometry x="170" y="202.25" width="30" height="10" as="geometry" />
        </mxCell>
        <mxCell id="87LP5JKLMeKJegdfesxn-298" value="P1.4" style="rounded=0;whiteSpace=wrap;html=1;strokeColor=default;fillColor=#007FFF;" parent="1" vertex="1">
          <mxGeometry x="170" y="222.25" width="30" height="10" as="geometry" />
        </mxCell>
        <mxCell id="87LP5JKLMeKJegdfesxn-299" value="P1.5" style="rounded=0;whiteSpace=wrap;html=1;strokeColor=default;fillColor=#007FFF;" parent="1" vertex="1">
          <mxGeometry x="170" y="242.25" width="30" height="10" as="geometry" />
        </mxCell>
        <mxCell id="87LP5JKLMeKJegdfesxn-300" value="P1.6" style="rounded=0;whiteSpace=wrap;html=1;strokeColor=default;fillColor=#007FFF;" parent="1" vertex="1">
          <mxGeometry x="170" y="262.25" width="30" height="10" as="geometry" />
        </mxCell>
        <mxCell id="87LP5JKLMeKJegdfesxn-301" value="P1.7" style="rounded=0;whiteSpace=wrap;html=1;strokeColor=default;fillColor=#007FFF;" parent="1" vertex="1">
          <mxGeometry x="170" y="282.25" width="30" height="10" as="geometry" />
        </mxCell>
        <mxCell id="87LP5JKLMeKJegdfesxn-302" value="P30" style="rounded=0;whiteSpace=wrap;html=1;strokeColor=default;fillColor=#007FFF;" parent="1" vertex="1">
          <mxGeometry x="340" y="142.25" width="30" height="10" as="geometry" />
        </mxCell>
        <mxCell id="87LP5JKLMeKJegdfesxn-303" value="P16" style="rounded=0;whiteSpace=wrap;html=1;strokeColor=default;fillColor=#007FFF;" parent="1" vertex="1">
          <mxGeometry x="340" y="115" width="30" height="10" as="geometry" />
        </mxCell>
        <mxCell id="87LP5JKLMeKJegdfesxn-304" value="P28" style="rounded=0;whiteSpace=wrap;html=1;strokeColor=default;fillColor=#007FFF;" parent="1" vertex="1">
          <mxGeometry x="340" y="155" width="30" height="10" as="geometry" />
        </mxCell>
        <mxCell id="87LP5JKLMeKJegdfesxn-305" value="GND" style="rounded=0;whiteSpace=wrap;html=1;strokeColor=default;fillColor=#007FFF;" parent="1" vertex="1">
          <mxGeometry x="340" y="168" width="30" height="10" as="geometry" />
        </mxCell>
        <mxCell id="87LP5JKLMeKJegdfesxn-306" value="P26" style="rounded=0;whiteSpace=wrap;html=1;strokeColor=default;fillColor=#007FFF;" parent="1" vertex="1">
          <mxGeometry x="340" y="181" width="30" height="10" as="geometry" />
        </mxCell>
        <mxCell id="87LP5JKLMeKJegdfesxn-307" style="edgeStyle=orthogonalEdgeStyle;rounded=0;orthogonalLoop=1;jettySize=auto;html=1;entryX=0;entryY=0.5;entryDx=0;entryDy=0;" parent="1" source="87LP5JKLMeKJegdfesxn-308" target="87LP5JKLMeKJegdfesxn-251" edge="1">
          <mxGeometry relative="1" as="geometry" />
        </mxCell>
        <mxCell id="87LP5JKLMeKJegdfesxn-308" value="P2" style="rounded=0;whiteSpace=wrap;html=1;strokeColor=default;fillColor=#007FFF;" parent="1" vertex="1">
          <mxGeometry x="931.5" y="455.5" width="30" height="10" as="geometry" />
        </mxCell>
        <mxCell id="87LP5JKLMeKJegdfesxn-309" value="&lt;h1 style=&quot;margin-top: 0px;&quot;&gt;PROJECT 5 CIRCUIT DIAGRAM&lt;/h1&gt;" style="text;html=1;whiteSpace=wrap;overflow=hidden;rounded=0;" parent="1" vertex="1">
          <mxGeometry x="40" y="10" width="260" height="60" as="geometry" />
        </mxCell>
        <mxCell id="87LP5JKLMeKJegdfesxn-310" value="LCD PERIPHERAL&lt;div&gt;MSP430FR2310&lt;/div&gt;" style="rounded=0;whiteSpace=wrap;html=1;strokeColor=default;fillColor=#007FFF;" parent="1" vertex="1">
          <mxGeometry x="204.05999999999997" y="563.75" width="131" height="91.63" as="geometry" />
        </mxCell>
        <mxCell id="87LP5JKLMeKJegdfesxn-311" value="LED BAR PERIPHERAL&lt;div&gt;MSP430FR2310&lt;/div&gt;" style="rounded=0;whiteSpace=wrap;html=1;strokeColor=default;fillColor=#007FFF;" parent="1" vertex="1">
          <mxGeometry x="800" y="290.84" width="131.5" height="322.63" as="geometry" />
        </mxCell>
        <mxCell id="87LP5JKLMeKJegdfesxn-312" style="rounded=0;orthogonalLoop=1;jettySize=auto;html=1;endArrow=none;startFill=0;" parent="1" source="87LP5JKLMeKJegdfesxn-368" edge="1">
          <mxGeometry relative="1" as="geometry">
            <mxPoint x="1031.25" y="220" as="targetPoint" />
          </mxGeometry>
        </mxCell>
        <mxCell id="87LP5JKLMeKJegdfesxn-313" value="P12" style="rounded=0;whiteSpace=wrap;html=1;strokeColor=default;fillColor=#007FFF;" parent="1" vertex="1">
          <mxGeometry x="340" y="215" width="30" height="10" as="geometry" />
        </mxCell>
        <mxCell id="87LP5JKLMeKJegdfesxn-314" value="P13" style="rounded=0;whiteSpace=wrap;html=1;strokeColor=default;fillColor=#007FFF;" parent="1" vertex="1">
          <mxGeometry x="340" y="235" width="30" height="10" as="geometry" />
        </mxCell>
        <mxCell id="87LP5JKLMeKJegdfesxn-315" value="&lt;font style=&quot;font-size: 8px;&quot;&gt;SCL&lt;/font&gt;" style="text;html=1;align=center;verticalAlign=middle;whiteSpace=wrap;rounded=0;" parent="1" vertex="1">
          <mxGeometry x="341.25" y="205" width="30" height="10" as="geometry" />
        </mxCell>
        <mxCell id="87LP5JKLMeKJegdfesxn-316" value="&lt;font style=&quot;font-size: 8px;&quot;&gt;SDA&lt;/font&gt;" style="text;html=1;align=center;verticalAlign=middle;whiteSpace=wrap;rounded=0;" parent="1" vertex="1">
          <mxGeometry x="343.75" y="225" width="25" height="10" as="geometry" />
        </mxCell>
        <mxCell id="87LP5JKLMeKJegdfesxn-317" style="edgeStyle=orthogonalEdgeStyle;rounded=0;orthogonalLoop=1;jettySize=auto;html=1;endArrow=none;startFill=0;" parent="1" source="87LP5JKLMeKJegdfesxn-365" edge="1">
          <mxGeometry relative="1" as="geometry">
            <mxPoint x="447.25" y="220" as="targetPoint" />
          </mxGeometry>
        </mxCell>
        <mxCell id="87LP5JKLMeKJegdfesxn-318" value="P15" style="rounded=0;whiteSpace=wrap;html=1;strokeColor=default;fillColor=#007FFF;rotation=90;" parent="1" vertex="1">
          <mxGeometry x="240.68999999999997" y="543.75" width="30" height="10" as="geometry" />
        </mxCell>
        <mxCell id="87LP5JKLMeKJegdfesxn-319" style="edgeStyle=orthogonalEdgeStyle;rounded=0;orthogonalLoop=1;jettySize=auto;html=1;endArrow=none;startFill=0;" parent="1" source="87LP5JKLMeKJegdfesxn-325" edge="1">
          <mxGeometry relative="1" as="geometry">
            <mxPoint x="427.96000000000004" y="240" as="targetPoint" />
          </mxGeometry>
        </mxCell>
        <mxCell id="87LP5JKLMeKJegdfesxn-320" value="P16" style="rounded=0;whiteSpace=wrap;html=1;strokeColor=default;fillColor=#007FFF;rotation=90;" parent="1" vertex="1">
          <mxGeometry x="221.4" y="543.75" width="30" height="10" as="geometry" />
        </mxCell>
        <mxCell id="87LP5JKLMeKJegdfesxn-321" value="&lt;font style=&quot;font-size: 8px;&quot;&gt;SCL&lt;/font&gt;" style="text;html=1;align=center;verticalAlign=middle;whiteSpace=wrap;rounded=0;rotation=90;" parent="1" vertex="1">
          <mxGeometry x="251.4" y="548.75" width="30" height="10" as="geometry" />
        </mxCell>
        <mxCell id="87LP5JKLMeKJegdfesxn-322" value="&lt;font style=&quot;font-size: 8px;&quot;&gt;SDA&lt;/font&gt;" style="text;html=1;align=center;verticalAlign=middle;whiteSpace=wrap;rounded=0;rotation=90;" parent="1" vertex="1">
          <mxGeometry x="233.32999999999996" y="549.31" width="25" height="8.87" as="geometry" />
        </mxCell>
        <mxCell id="87LP5JKLMeKJegdfesxn-323" value="" style="edgeStyle=orthogonalEdgeStyle;rounded=0;orthogonalLoop=1;jettySize=auto;html=1;entryX=-0.042;entryY=0.495;entryDx=0;entryDy=0;entryPerimeter=0;endArrow=none;startFill=0;" parent="1" source="87LP5JKLMeKJegdfesxn-314" target="87LP5JKLMeKJegdfesxn-325" edge="1">
          <mxGeometry relative="1" as="geometry">
            <mxPoint x="752.25" y="241" as="targetPoint" />
            <mxPoint x="371.25" y="240" as="sourcePoint" />
          </mxGeometry>
        </mxCell>
        <mxCell id="87LP5JKLMeKJegdfesxn-324" value="" style="edgeStyle=orthogonalEdgeStyle;rounded=0;orthogonalLoop=1;jettySize=auto;html=1;endArrow=none;startFill=0;exitX=0;exitY=0.5;exitDx=0;exitDy=0;entryX=0.5;entryY=1;entryDx=0;entryDy=0;" parent="1" source="87LP5JKLMeKJegdfesxn-320" target="87LP5JKLMeKJegdfesxn-325" edge="1">
          <mxGeometry relative="1" as="geometry">
            <mxPoint x="427.96000000000004" y="240" as="targetPoint" />
            <mxPoint x="428.25" y="344" as="sourcePoint" />
            <Array as="points">
              <mxPoint x="236" y="510" />
              <mxPoint x="393" y="510" />
              <mxPoint x="393" y="242" />
            </Array>
          </mxGeometry>
        </mxCell>
        <mxCell id="87LP5JKLMeKJegdfesxn-325" value="" style="ellipse;whiteSpace=wrap;html=1;aspect=fixed;fillColor=light-dark(#000000,#FFFFFF);" parent="1" vertex="1">
          <mxGeometry x="390" y="237.5" width="5" height="5" as="geometry" />
        </mxCell>
        <mxCell id="87LP5JKLMeKJegdfesxn-326" value="" style="edgeStyle=orthogonalEdgeStyle;rounded=0;orthogonalLoop=1;jettySize=auto;html=1;endArrow=none;startFill=0;exitX=0;exitY=0.5;exitDx=0;exitDy=0;" parent="1" source="87LP5JKLMeKJegdfesxn-318" target="87LP5JKLMeKJegdfesxn-365" edge="1">
          <mxGeometry relative="1" as="geometry">
            <mxPoint x="447.25" y="220" as="targetPoint" />
            <mxPoint x="447.25" y="344" as="sourcePoint" />
            <Array as="points">
              <mxPoint x="256" y="520" />
              <mxPoint x="405" y="520" />
            </Array>
          </mxGeometry>
        </mxCell>
        <mxCell id="87LP5JKLMeKJegdfesxn-327" value="" style="edgeStyle=orthogonalEdgeStyle;rounded=0;orthogonalLoop=1;jettySize=auto;html=1;endArrow=none;startFill=0;" parent="1" source="87LP5JKLMeKJegdfesxn-325" edge="1">
          <mxGeometry relative="1" as="geometry">
            <mxPoint x="500" y="240" as="targetPoint" />
            <mxPoint x="430.25" y="240" as="sourcePoint" />
          </mxGeometry>
        </mxCell>
        <mxCell id="87LP5JKLMeKJegdfesxn-328" style="edgeStyle=orthogonalEdgeStyle;rounded=0;orthogonalLoop=1;jettySize=auto;html=1;endArrow=none;startFill=0;" parent="1" source="87LP5JKLMeKJegdfesxn-370" edge="1">
          <mxGeometry relative="1" as="geometry">
            <mxPoint x="1031.25" y="240" as="targetPoint" />
          </mxGeometry>
        </mxCell>
        <mxCell id="87LP5JKLMeKJegdfesxn-329" value="P15" style="rounded=0;whiteSpace=wrap;html=1;strokeColor=default;fillColor=#007FFF;rotation=90;" parent="1" vertex="1">
          <mxGeometry x="810" y="270.53000000000003" width="30" height="10" as="geometry" />
        </mxCell>
        <mxCell id="87LP5JKLMeKJegdfesxn-330" value="&lt;font style=&quot;font-size: 8px;&quot;&gt;SCL&lt;/font&gt;" style="text;html=1;align=center;verticalAlign=middle;whiteSpace=wrap;rounded=0;rotation=90;" parent="1" vertex="1">
          <mxGeometry x="825" y="275.53000000000003" width="20" height="10" as="geometry" />
        </mxCell>
        <mxCell id="87LP5JKLMeKJegdfesxn-331" value="P16" style="rounded=0;whiteSpace=wrap;html=1;strokeColor=default;fillColor=#007FFF;rotation=90;" parent="1" vertex="1">
          <mxGeometry x="790" y="270.53000000000003" width="30" height="10" as="geometry" />
        </mxCell>
        <mxCell id="87LP5JKLMeKJegdfesxn-332" value="&lt;font style=&quot;font-size: 8px;&quot;&gt;SDA&lt;/font&gt;" style="text;html=1;align=center;verticalAlign=middle;whiteSpace=wrap;rounded=0;rotation=90;" parent="1" vertex="1">
          <mxGeometry x="805" y="274.53000000000003" width="25" height="10" as="geometry" />
        </mxCell>
        <mxCell id="87LP5JKLMeKJegdfesxn-333" value="" style="pointerEvents=1;verticalLabelPosition=bottom;shadow=0;dashed=0;align=center;html=1;verticalAlign=top;shape=mxgraph.electrical.signal_sources.signal_ground;" parent="1" vertex="1">
          <mxGeometry x="307.5" y="689.88" width="45" height="30" as="geometry" />
        </mxCell>
        <mxCell id="87LP5JKLMeKJegdfesxn-334" value="P6" style="rounded=0;whiteSpace=wrap;html=1;strokeColor=default;fillColor=#007FFF;rotation=90;" parent="1" vertex="1">
          <mxGeometry x="312.5" y="667.88" width="35" height="10" as="geometry" />
        </mxCell>
        <mxCell id="87LP5JKLMeKJegdfesxn-335" value="" style="pointerEvents=1;verticalLabelPosition=bottom;shadow=0;dashed=0;align=center;html=1;verticalAlign=top;shape=mxgraph.electrical.signal_sources.signal_ground;" parent="1" vertex="1">
          <mxGeometry x="904" y="645.81" width="45" height="30" as="geometry" />
        </mxCell>
        <mxCell id="87LP5JKLMeKJegdfesxn-336" value="P6" style="rounded=0;whiteSpace=wrap;html=1;strokeColor=default;fillColor=#007FFF;rotation=90;" parent="1" vertex="1">
          <mxGeometry x="909" y="626" width="35" height="10" as="geometry" />
        </mxCell>
        <mxCell id="87LP5JKLMeKJegdfesxn-337" value="P5" style="rounded=0;whiteSpace=wrap;html=1;strokeColor=default;fillColor=#007FFF;" parent="1" vertex="1">
          <mxGeometry x="770" y="295" width="30" height="10" as="geometry" />
        </mxCell>
        <mxCell id="87LP5JKLMeKJegdfesxn-338" value="" style="endArrow=classic;html=1;rounded=0;exitX=0;exitY=0.5;exitDx=0;exitDy=0;" parent="1" source="87LP5JKLMeKJegdfesxn-337" edge="1">
          <mxGeometry width="50" height="50" relative="1" as="geometry">
            <mxPoint x="760" y="300" as="sourcePoint" />
            <mxPoint x="750" y="280" as="targetPoint" />
            <Array as="points">
              <mxPoint x="750" y="300" />
            </Array>
          </mxGeometry>
        </mxCell>
        <mxCell id="87LP5JKLMeKJegdfesxn-339" value="P5" style="rounded=0;whiteSpace=wrap;html=1;strokeColor=default;fillColor=#007FFF;" parent="1" vertex="1">
          <mxGeometry x="174.05999999999997" y="564.31" width="30" height="10" as="geometry" />
        </mxCell>
        <mxCell id="87LP5JKLMeKJegdfesxn-340" value="" style="endArrow=classic;html=1;rounded=0;exitX=0;exitY=0.5;exitDx=0;exitDy=0;" parent="1" source="87LP5JKLMeKJegdfesxn-339" edge="1">
          <mxGeometry width="50" height="50" relative="1" as="geometry">
            <mxPoint x="168.43999999999997" y="569.88" as="sourcePoint" />
            <mxPoint x="154.05999999999997" y="549.31" as="targetPoint" />
            <Array as="points">
              <mxPoint x="154.05999999999997" y="569.31" />
            </Array>
          </mxGeometry>
        </mxCell>
        <mxCell id="87LP5JKLMeKJegdfesxn-341" style="edgeStyle=orthogonalEdgeStyle;rounded=0;orthogonalLoop=1;jettySize=auto;html=1;entryX=0;entryY=0.5;entryDx=0;entryDy=0;" parent="1" source="87LP5JKLMeKJegdfesxn-342" target="87LP5JKLMeKJegdfesxn-250" edge="1">
          <mxGeometry relative="1" as="geometry" />
        </mxCell>
        <mxCell id="87LP5JKLMeKJegdfesxn-342" value="P7" style="rounded=0;whiteSpace=wrap;html=1;strokeColor=default;fillColor=#007FFF;" parent="1" vertex="1">
          <mxGeometry x="931.5" y="438.75" width="30" height="10" as="geometry" />
        </mxCell>
        <mxCell id="87LP5JKLMeKJegdfesxn-343" style="edgeStyle=orthogonalEdgeStyle;rounded=0;orthogonalLoop=1;jettySize=auto;html=1;entryX=0;entryY=0.5;entryDx=0;entryDy=0;" parent="1" source="87LP5JKLMeKJegdfesxn-344" target="87LP5JKLMeKJegdfesxn-249" edge="1">
          <mxGeometry relative="1" as="geometry" />
        </mxCell>
        <mxCell id="87LP5JKLMeKJegdfesxn-344" value="P8" style="rounded=0;whiteSpace=wrap;html=1;strokeColor=default;fillColor=#007FFF;" parent="1" vertex="1">
          <mxGeometry x="931.5" y="415.5" width="30" height="10" as="geometry" />
        </mxCell>
        <mxCell id="87LP5JKLMeKJegdfesxn-345" style="edgeStyle=orthogonalEdgeStyle;rounded=0;orthogonalLoop=1;jettySize=auto;html=1;entryX=0;entryY=0.5;entryDx=0;entryDy=0;" parent="1" source="87LP5JKLMeKJegdfesxn-346" target="87LP5JKLMeKJegdfesxn-248" edge="1">
          <mxGeometry relative="1" as="geometry" />
        </mxCell>
        <mxCell id="87LP5JKLMeKJegdfesxn-346" value="P9" style="rounded=0;whiteSpace=wrap;html=1;strokeColor=default;fillColor=#007FFF;" parent="1" vertex="1">
          <mxGeometry x="931.5" y="398.75" width="30" height="10" as="geometry" />
        </mxCell>
        <mxCell id="87LP5JKLMeKJegdfesxn-347" style="edgeStyle=orthogonalEdgeStyle;rounded=0;orthogonalLoop=1;jettySize=auto;html=1;entryX=0;entryY=0.5;entryDx=0;entryDy=0;" parent="1" source="87LP5JKLMeKJegdfesxn-348" target="87LP5JKLMeKJegdfesxn-247" edge="1">
          <mxGeometry relative="1" as="geometry" />
        </mxCell>
        <mxCell id="87LP5JKLMeKJegdfesxn-348" value="P10" style="rounded=0;whiteSpace=wrap;html=1;strokeColor=default;fillColor=#007FFF;" parent="1" vertex="1">
          <mxGeometry x="931.5" y="382.25" width="30" height="10" as="geometry" />
        </mxCell>
        <mxCell id="87LP5JKLMeKJegdfesxn-349" style="edgeStyle=orthogonalEdgeStyle;rounded=0;orthogonalLoop=1;jettySize=auto;html=1;entryX=0;entryY=0.5;entryDx=0;entryDy=0;" parent="1" source="87LP5JKLMeKJegdfesxn-350" target="87LP5JKLMeKJegdfesxn-246" edge="1">
          <mxGeometry relative="1" as="geometry" />
        </mxCell>
        <mxCell id="87LP5JKLMeKJegdfesxn-350" value="P11" style="rounded=0;whiteSpace=wrap;html=1;strokeColor=default;fillColor=#007FFF;" parent="1" vertex="1">
          <mxGeometry x="931.5" y="365.5" width="30" height="10" as="geometry" />
        </mxCell>
        <mxCell id="87LP5JKLMeKJegdfesxn-351" value="P13" style="rounded=0;whiteSpace=wrap;html=1;strokeColor=default;fillColor=#007FFF;" parent="1" vertex="1">
          <mxGeometry x="931.5" y="342.25" width="30" height="10" as="geometry" />
        </mxCell>
        <mxCell id="87LP5JKLMeKJegdfesxn-352" style="edgeStyle=orthogonalEdgeStyle;rounded=0;orthogonalLoop=1;jettySize=auto;html=1;entryX=0;entryY=0.5;entryDx=0;entryDy=0;" parent="1" source="87LP5JKLMeKJegdfesxn-353" target="87LP5JKLMeKJegdfesxn-244" edge="1">
          <mxGeometry relative="1" as="geometry" />
        </mxCell>
        <mxCell id="87LP5JKLMeKJegdfesxn-353" value="P14" style="rounded=0;whiteSpace=wrap;html=1;strokeColor=default;fillColor=#007FFF;" parent="1" vertex="1">
          <mxGeometry x="931.5" y="325.5" width="30" height="10" as="geometry" />
        </mxCell>
        <mxCell id="87LP5JKLMeKJegdfesxn-354" style="edgeStyle=orthogonalEdgeStyle;rounded=0;orthogonalLoop=1;jettySize=auto;html=1;entryX=0;entryY=0.5;entryDx=0;entryDy=0;" parent="1" source="87LP5JKLMeKJegdfesxn-351" target="87LP5JKLMeKJegdfesxn-245" edge="1">
          <mxGeometry relative="1" as="geometry" />
        </mxCell>
        <mxCell id="87LP5JKLMeKJegdfesxn-355" value="" style="pointerEvents=1;verticalLabelPosition=bottom;shadow=0;dashed=0;align=center;html=1;verticalAlign=top;shape=mxgraph.electrical.resistors.resistor_2;fillColor=light-dark(#FFFFFF,#000000);strokeColor=light-dark(#000000,#FFFFFF);rotation=0;" parent="1" vertex="1">
          <mxGeometry x="1020.63" y="214.18" width="59.98" height="11.64" as="geometry" />
        </mxCell>
        <mxCell id="87LP5JKLMeKJegdfesxn-356" value="" style="pointerEvents=1;verticalLabelPosition=bottom;shadow=0;dashed=0;align=center;html=1;verticalAlign=top;shape=mxgraph.electrical.resistors.resistor_2;fillColor=light-dark(#FFFFFF,#000000);strokeColor=light-dark(#000000,#FFFFFF);rotation=0;" parent="1" vertex="1">
          <mxGeometry x="1020.9600000000002" y="234.18" width="59.98" height="11.64" as="geometry" />
        </mxCell>
        <mxCell id="87LP5JKLMeKJegdfesxn-357" value="" style="endArrow=classic;html=1;rounded=0;exitX=1;exitY=0.5;exitDx=0;exitDy=0;exitPerimeter=0;" parent="1" source="87LP5JKLMeKJegdfesxn-356" edge="1">
          <mxGeometry width="50" height="50" relative="1" as="geometry">
            <mxPoint x="1079.38" y="265" as="sourcePoint" />
            <mxPoint x="1110" y="200" as="targetPoint" />
            <Array as="points">
              <mxPoint x="1110" y="240" />
            </Array>
          </mxGeometry>
        </mxCell>
        <mxCell id="87LP5JKLMeKJegdfesxn-358" value="" style="endArrow=classic;html=1;rounded=0;exitX=1;exitY=0.5;exitDx=0;exitDy=0;exitPerimeter=0;" parent="1" source="87LP5JKLMeKJegdfesxn-355" edge="1">
          <mxGeometry width="50" height="50" relative="1" as="geometry">
            <mxPoint x="1086.88" y="217.5" as="sourcePoint" />
            <mxPoint x="1100" y="200" as="targetPoint" />
            <Array as="points">
              <mxPoint x="1100" y="220" />
            </Array>
          </mxGeometry>
        </mxCell>
        <mxCell id="87LP5JKLMeKJegdfesxn-359" value="3.3 V" style="text;html=1;align=center;verticalAlign=middle;whiteSpace=wrap;rounded=0;" parent="1" vertex="1">
          <mxGeometry x="1086.41" y="190" width="39.06" height="5" as="geometry" />
        </mxCell>
        <mxCell id="87LP5JKLMeKJegdfesxn-360" value="3.3 V" style="text;html=1;align=center;verticalAlign=middle;whiteSpace=wrap;rounded=0;" parent="1" vertex="1">
          <mxGeometry x="730.0000000000002" y="273.03" width="39.06" height="5" as="geometry" />
        </mxCell>
        <mxCell id="87LP5JKLMeKJegdfesxn-361" value="1kΩ&lt;div&gt;(External)&lt;/div&gt;" style="text;html=1;align=center;verticalAlign=middle;whiteSpace=wrap;rounded=0;" parent="1" vertex="1">
          <mxGeometry x="425" y="105" width="60" height="30" as="geometry" />
        </mxCell>
        <mxCell id="87LP5JKLMeKJegdfesxn-362" value="1kΩ&lt;div&gt;(External)&lt;/div&gt;" style="text;html=1;align=center;verticalAlign=middle;whiteSpace=wrap;rounded=0;" parent="1" vertex="1">
          <mxGeometry x="1020.9600000000002" y="245.53" width="60" height="30" as="geometry" />
        </mxCell>
        <mxCell id="87LP5JKLMeKJegdfesxn-363" value="3.3 V" style="text;html=1;align=center;verticalAlign=middle;whiteSpace=wrap;rounded=0;" parent="1" vertex="1">
          <mxGeometry x="145.16000000000022" y="542.13" width="39.06" height="5" as="geometry" />
        </mxCell>
        <mxCell id="87LP5JKLMeKJegdfesxn-364" value="" style="rounded=0;orthogonalLoop=1;jettySize=auto;html=1;endArrow=none;startFill=0;" parent="1" source="87LP5JKLMeKJegdfesxn-313" target="87LP5JKLMeKJegdfesxn-365" edge="1">
          <mxGeometry relative="1" as="geometry">
            <mxPoint x="1031.25" y="220" as="targetPoint" />
            <mxPoint x="370" y="220" as="sourcePoint" />
          </mxGeometry>
        </mxCell>
        <mxCell id="87LP5JKLMeKJegdfesxn-365" value="" style="ellipse;whiteSpace=wrap;html=1;aspect=fixed;fillColor=light-dark(#000000,#FFFFFF);" parent="1" vertex="1">
          <mxGeometry x="402.56" y="217.5" width="5" height="5" as="geometry" />
        </mxCell>
        <mxCell id="87LP5JKLMeKJegdfesxn-366" value="" style="rounded=0;orthogonalLoop=1;jettySize=auto;html=1;endArrow=none;startFill=0;" parent="1" source="87LP5JKLMeKJegdfesxn-365" edge="1">
          <mxGeometry relative="1" as="geometry">
            <mxPoint x="520" y="220" as="targetPoint" />
            <mxPoint x="408" y="220" as="sourcePoint" />
          </mxGeometry>
        </mxCell>
        <mxCell id="87LP5JKLMeKJegdfesxn-367" value="" style="rounded=0;orthogonalLoop=1;jettySize=auto;html=1;endArrow=none;startFill=0;" parent="1" target="87LP5JKLMeKJegdfesxn-368" edge="1">
          <mxGeometry relative="1" as="geometry">
            <mxPoint x="1031.25" y="220" as="targetPoint" />
            <mxPoint x="520" y="220" as="sourcePoint" />
          </mxGeometry>
        </mxCell>
        <mxCell id="87LP5JKLMeKJegdfesxn-368" value="" style="ellipse;whiteSpace=wrap;html=1;aspect=fixed;fillColor=light-dark(#000000,#FFFFFF);" parent="1" vertex="1">
          <mxGeometry x="822.5" y="217.5" width="5" height="5" as="geometry" />
        </mxCell>
        <mxCell id="87LP5JKLMeKJegdfesxn-369" value="" style="edgeStyle=orthogonalEdgeStyle;rounded=0;orthogonalLoop=1;jettySize=auto;html=1;endArrow=none;startFill=0;" parent="1" target="87LP5JKLMeKJegdfesxn-370" edge="1">
          <mxGeometry relative="1" as="geometry">
            <mxPoint x="1031.25" y="240" as="targetPoint" />
            <mxPoint x="500" y="240" as="sourcePoint" />
          </mxGeometry>
        </mxCell>
        <mxCell id="87LP5JKLMeKJegdfesxn-370" value="" style="ellipse;whiteSpace=wrap;html=1;aspect=fixed;fillColor=light-dark(#000000,#FFFFFF);" parent="1" vertex="1">
          <mxGeometry x="802.5" y="237.5" width="5" height="5" as="geometry" />
        </mxCell>
        <mxCell id="87LP5JKLMeKJegdfesxn-371" value="" style="endArrow=none;html=1;rounded=0;entryX=0.5;entryY=1;entryDx=0;entryDy=0;exitX=0;exitY=0.5;exitDx=0;exitDy=0;" parent="1" source="87LP5JKLMeKJegdfesxn-329" target="87LP5JKLMeKJegdfesxn-368" edge="1">
          <mxGeometry width="50" height="50" relative="1" as="geometry">
            <mxPoint x="750" y="280" as="sourcePoint" />
            <mxPoint x="800" y="230" as="targetPoint" />
          </mxGeometry>
        </mxCell>
        <mxCell id="87LP5JKLMeKJegdfesxn-372" value="" style="endArrow=none;html=1;rounded=0;entryX=0.5;entryY=1;entryDx=0;entryDy=0;exitX=0;exitY=0.5;exitDx=0;exitDy=0;" parent="1" source="87LP5JKLMeKJegdfesxn-331" target="87LP5JKLMeKJegdfesxn-370" edge="1">
          <mxGeometry width="50" height="50" relative="1" as="geometry">
            <mxPoint x="835" y="271" as="sourcePoint" />
            <mxPoint x="835" y="233" as="targetPoint" />
          </mxGeometry>
        </mxCell>
        <mxCell id="87LP5JKLMeKJegdfesxn-373" value="" style="group" parent="1" vertex="1" connectable="0">
          <mxGeometry x="131" y="93" width="69" height="31.970000000000027" as="geometry" />
        </mxCell>
        <mxCell id="87LP5JKLMeKJegdfesxn-374" value="P6" style="rounded=0;whiteSpace=wrap;html=1;strokeColor=default;fillColor=#007FFF;container=0;" parent="87LP5JKLMeKJegdfesxn-373" vertex="1">
          <mxGeometry x="39.42857142857133" y="21.970000000000027" width="29.571428571428665" height="10" as="geometry" />
        </mxCell>
        <mxCell id="87LP5JKLMeKJegdfesxn-375" value="" style="endArrow=classic;html=1;rounded=0;exitX=0;exitY=0.5;exitDx=0;exitDy=0;" parent="87LP5JKLMeKJegdfesxn-373" source="87LP5JKLMeKJegdfesxn-374" edge="1">
          <mxGeometry width="50" height="50" relative="1" as="geometry">
            <mxPoint x="29.57142857142844" y="26.970000000000027" as="sourcePoint" />
            <mxPoint x="19.714285714285552" y="6.970000000000027" as="targetPoint" />
            <Array as="points">
              <mxPoint x="19.714285714285552" y="26.970000000000027" />
            </Array>
          </mxGeometry>
        </mxCell>
        <mxCell id="87LP5JKLMeKJegdfesxn-376" value="3.3 V" style="text;html=1;align=center;verticalAlign=middle;whiteSpace=wrap;rounded=0;container=0;" parent="87LP5JKLMeKJegdfesxn-373" vertex="1">
          <mxGeometry width="38.50200000000013" height="5" as="geometry" />
        </mxCell>
        <mxCell id="87LP5JKLMeKJegdfesxn-377" value="" style="verticalLabelPosition=bottom;shadow=0;dashed=0;align=center;html=1;verticalAlign=top;shape=mxgraph.electrical.opto_electronics.led_1;pointerEvents=1;fillColor=light-dark(#E70000,#CC0000);strokeColor=default;" parent="1" vertex="1">
          <mxGeometry x="961.5" y="286.16" width="26" height="18.03" as="geometry" />
        </mxCell>
        <mxCell id="87LP5JKLMeKJegdfesxn-378" value="P1" style="rounded=0;whiteSpace=wrap;html=1;strokeColor=default;fillColor=#007FFF;" parent="1" vertex="1">
          <mxGeometry x="931.5" y="290.84000000000003" width="30" height="10" as="geometry" />
        </mxCell>
        <mxCell id="87LP5JKLMeKJegdfesxn-379" value="" style="pointerEvents=1;verticalLabelPosition=bottom;shadow=0;dashed=0;align=center;html=1;verticalAlign=top;shape=mxgraph.electrical.signal_sources.signal_ground;fillColor=light-dark(#FFFFFF,#000000);" parent="1" vertex="1">
          <mxGeometry x="990" y="296" width="21.56" height="17.75" as="geometry" />
        </mxCell>
        <mxCell id="87LP5JKLMeKJegdfesxn-380" value="" style="endArrow=none;html=1;rounded=0;exitX=1;exitY=0.54;exitDx=0;exitDy=0;exitPerimeter=0;entryX=0.5;entryY=0;entryDx=0;entryDy=0;entryPerimeter=0;" parent="1" source="87LP5JKLMeKJegdfesxn-377" target="87LP5JKLMeKJegdfesxn-379" edge="1">
          <mxGeometry width="50" height="50" relative="1" as="geometry">
            <mxPoint x="950" y="340" as="sourcePoint" />
            <mxPoint x="1000" y="290" as="targetPoint" />
          </mxGeometry>
        </mxCell>
        <mxCell id="87LP5JKLMeKJegdfesxn-381" value="" style="group" parent="1" vertex="1" connectable="0">
          <mxGeometry x="370" y="110" width="50.06" height="27.589999999999975" as="geometry" />
        </mxCell>
        <mxCell id="87LP5JKLMeKJegdfesxn-382" value="" style="verticalLabelPosition=bottom;shadow=0;dashed=0;align=center;html=1;verticalAlign=top;shape=mxgraph.electrical.opto_electronics.led_1;pointerEvents=1;fillColor=light-dark(#E70000,#CC0000);strokeColor=default;" parent="87LP5JKLMeKJegdfesxn-381" vertex="1">
          <mxGeometry width="26" height="18.03" as="geometry" />
        </mxCell>
        <mxCell id="87LP5JKLMeKJegdfesxn-383" value="" style="pointerEvents=1;verticalLabelPosition=bottom;shadow=0;dashed=0;align=center;html=1;verticalAlign=top;shape=mxgraph.electrical.signal_sources.signal_ground;fillColor=light-dark(#FFFFFF,#000000);" parent="87LP5JKLMeKJegdfesxn-381" vertex="1">
          <mxGeometry x="28.5" y="9.839999999999975" width="21.56" height="17.75" as="geometry" />
        </mxCell>
        <mxCell id="87LP5JKLMeKJegdfesxn-384" value="" style="endArrow=none;html=1;rounded=0;exitX=1;exitY=0.54;exitDx=0;exitDy=0;exitPerimeter=0;entryX=0.5;entryY=0;entryDx=0;entryDy=0;entryPerimeter=0;" parent="87LP5JKLMeKJegdfesxn-381" source="87LP5JKLMeKJegdfesxn-382" target="87LP5JKLMeKJegdfesxn-383" edge="1">
          <mxGeometry width="50" height="50" relative="1" as="geometry">
            <mxPoint x="-11.5" y="53.839999999999975" as="sourcePoint" />
            <mxPoint x="38.5" y="3.839999999999975" as="targetPoint" />
          </mxGeometry>
        </mxCell>
        <mxCell id="87LP5JKLMeKJegdfesxn-385" value="&lt;font style=&quot;font-size: 10px;&quot;&gt;Status&lt;/font&gt;" style="text;html=1;align=center;verticalAlign=middle;whiteSpace=wrap;rounded=0;" parent="87LP5JKLMeKJegdfesxn-381" vertex="1">
          <mxGeometry x="-17" y="-20.159999999999997" width="60" height="30" as="geometry" />
        </mxCell>
        <mxCell id="87LP5JKLMeKJegdfesxn-386" value="" style="group" parent="1" vertex="1" connectable="0">
          <mxGeometry x="439.9999999999999" y="147.25" width="104.69000000000005" height="40" as="geometry" />
        </mxCell>
        <mxCell id="87LP5JKLMeKJegdfesxn-387" value="&lt;font style=&quot;color: light-dark(rgb(0, 0, 0), rgb(255, 255, 255)); font-size: 10px;&quot;&gt;STATUS LED&lt;/font&gt;" style="whiteSpace=wrap;html=1;aspect=fixed;fillColor=light-dark(#FFFFFF,#000000);strokeColor=light-dark(#000000,#FFFFFF);" parent="87LP5JKLMeKJegdfesxn-386" vertex="1">
          <mxGeometry x="64.69000000000005" width="40" height="40" as="geometry" />
        </mxCell>
        <mxCell id="87LP5JKLMeKJegdfesxn-388" value="Red" style="rounded=0;whiteSpace=wrap;html=1;strokeColor=light-dark(#000000,#FFFFFF);fontSize=11;" parent="87LP5JKLMeKJegdfesxn-386" vertex="1">
          <mxGeometry x="20" y="30" width="44.69" height="10" as="geometry" />
        </mxCell>
        <mxCell id="87LP5JKLMeKJegdfesxn-389" value="Cathode" style="rounded=0;whiteSpace=wrap;html=1;strokeColor=light-dark(#000000,#FFFFFF);fontSize=11;" parent="87LP5JKLMeKJegdfesxn-386" vertex="1">
          <mxGeometry y="20" width="64.69" height="10" as="geometry" />
        </mxCell>
        <mxCell id="87LP5JKLMeKJegdfesxn-390" value="Green" style="rounded=0;whiteSpace=wrap;html=1;strokeColor=light-dark(#000000,#FFFFFF);fontSize=11;" parent="87LP5JKLMeKJegdfesxn-386" vertex="1">
          <mxGeometry x="20" y="10" width="44.69" height="10" as="geometry" />
        </mxCell>
        <mxCell id="87LP5JKLMeKJegdfesxn-391" value="Blue" style="rounded=0;whiteSpace=wrap;html=1;strokeColor=light-dark(#000000,#FFFFFF);fontSize=11;" parent="87LP5JKLMeKJegdfesxn-386" vertex="1">
          <mxGeometry x="20" width="44.69" height="10" as="geometry" />
        </mxCell>
        <mxCell id="87LP5JKLMeKJegdfesxn-392" value="" style="pointerEvents=1;verticalLabelPosition=bottom;shadow=0;dashed=0;align=center;html=1;verticalAlign=top;shape=mxgraph.electrical.resistors.resistor_2;fillColor=light-dark(#FFFFFF,#000000);strokeColor=light-dark(#000000,#FFFFFF);rotation=0;" parent="1" vertex="1">
          <mxGeometry x="375.06" y="139.75" width="60" height="15" as="geometry" />
        </mxCell>
        <mxCell id="87LP5JKLMeKJegdfesxn-393" value="" style="pointerEvents=1;verticalLabelPosition=bottom;shadow=0;dashed=0;align=center;html=1;verticalAlign=top;shape=mxgraph.electrical.resistors.resistor_2;fillColor=light-dark(#FFFFFF,#000000);strokeColor=light-dark(#000000,#FFFFFF);rotation=0;" parent="1" vertex="1">
          <mxGeometry x="375.06" y="153" width="60" height="15" as="geometry" />
        </mxCell>
        <mxCell id="87LP5JKLMeKJegdfesxn-394" value="" style="pointerEvents=1;verticalLabelPosition=bottom;shadow=0;dashed=0;align=center;html=1;verticalAlign=top;shape=mxgraph.electrical.resistors.resistor_2;fillColor=light-dark(#FFFFFF,#000000);strokeColor=light-dark(#000000,#FFFFFF);rotation=0;" parent="1" vertex="1">
          <mxGeometry x="375.06" y="178.5" width="60" height="15" as="geometry" />
        </mxCell>
        <mxCell id="87LP5JKLMeKJegdfesxn-395" value="" style="endArrow=classic;html=1;rounded=0;exitX=0;exitY=0.5;exitDx=0;exitDy=0;entryX=1;entryY=0.5;entryDx=0;entryDy=0;" parent="1" source="87LP5JKLMeKJegdfesxn-389" target="87LP5JKLMeKJegdfesxn-305" edge="1">
          <mxGeometry width="50" height="50" relative="1" as="geometry">
            <mxPoint x="360" y="210" as="sourcePoint" />
            <mxPoint x="410" y="160" as="targetPoint" />
          </mxGeometry>
        </mxCell>
        <mxCell id="87LP5JKLMeKJegdfesxn-396" value="" style="endArrow=none;html=1;rounded=0;entryX=0;entryY=0.5;entryDx=0;entryDy=0;exitX=1;exitY=0.5;exitDx=0;exitDy=0;exitPerimeter=0;edgeStyle=elbowEdgeStyle;elbow=vertical;" parent="1" source="87LP5JKLMeKJegdfesxn-394" target="87LP5JKLMeKJegdfesxn-388" edge="1">
          <mxGeometry width="50" height="50" relative="1" as="geometry">
            <mxPoint x="407.56" y="234.18" as="sourcePoint" />
            <mxPoint x="457.56" y="184.18" as="targetPoint" />
          </mxGeometry>
        </mxCell>
        <mxCell id="87LP5JKLMeKJegdfesxn-397" value="" style="endArrow=none;html=1;rounded=0;exitX=1;exitY=0.5;exitDx=0;exitDy=0;exitPerimeter=0;entryX=0;entryY=0.5;entryDx=0;entryDy=0;edgeStyle=orthogonalEdgeStyle;" parent="1" source="87LP5JKLMeKJegdfesxn-393" target="87LP5JKLMeKJegdfesxn-390" edge="1">
          <mxGeometry width="50" height="50" relative="1" as="geometry">
            <mxPoint x="420" y="180" as="sourcePoint" />
            <mxPoint x="470" y="130" as="targetPoint" />
          </mxGeometry>
        </mxCell>
        <mxCell id="87LP5JKLMeKJegdfesxn-398" value="" style="endArrow=none;html=1;rounded=0;exitX=1;exitY=0.5;exitDx=0;exitDy=0;exitPerimeter=0;entryX=0;entryY=0.5;entryDx=0;entryDy=0;edgeStyle=orthogonalEdgeStyle;" parent="1" source="87LP5JKLMeKJegdfesxn-392" target="87LP5JKLMeKJegdfesxn-391" edge="1">
          <mxGeometry width="50" height="50" relative="1" as="geometry">
            <mxPoint x="445" y="171" as="sourcePoint" />
            <mxPoint x="470" y="172" as="targetPoint" />
          </mxGeometry>
        </mxCell>
        <mxCell id="87LP5JKLMeKJegdfesxn-399" value="" style="endArrow=none;html=1;rounded=0;entryX=0;entryY=0.5;entryDx=0;entryDy=0;entryPerimeter=0;exitX=1;exitY=0.5;exitDx=0;exitDy=0;" parent="1" source="87LP5JKLMeKJegdfesxn-306" target="87LP5JKLMeKJegdfesxn-394" edge="1">
          <mxGeometry width="50" height="50" relative="1" as="geometry">
            <mxPoint x="340" y="200" as="sourcePoint" />
            <mxPoint x="390" y="150" as="targetPoint" />
          </mxGeometry>
        </mxCell>
        <mxCell id="87LP5JKLMeKJegdfesxn-400" value="" style="endArrow=none;html=1;rounded=0;entryX=0;entryY=0.5;entryDx=0;entryDy=0;entryPerimeter=0;exitX=1;exitY=0.5;exitDx=0;exitDy=0;" parent="1" edge="1">
          <mxGeometry width="50" height="50" relative="1" as="geometry">
            <mxPoint x="370.06" y="160.45" as="sourcePoint" />
            <mxPoint x="375.06" y="160.45" as="targetPoint" />
          </mxGeometry>
        </mxCell>
        <mxCell id="87LP5JKLMeKJegdfesxn-401" value="" style="endArrow=none;html=1;rounded=0;entryX=0;entryY=0.5;entryDx=0;entryDy=0;entryPerimeter=0;exitX=1;exitY=0.5;exitDx=0;exitDy=0;" parent="1" edge="1">
          <mxGeometry width="50" height="50" relative="1" as="geometry">
            <mxPoint x="370.06" y="147.25" as="sourcePoint" />
            <mxPoint x="375.06" y="147.25" as="targetPoint" />
          </mxGeometry>
        </mxCell>
        <mxCell id="87LP5JKLMeKJegdfesxn-402" value="1kΩ&lt;div&gt;(External)&lt;/div&gt;" style="text;html=1;align=center;verticalAlign=middle;whiteSpace=wrap;rounded=0;" parent="1" vertex="1">
          <mxGeometry x="1020.94" y="184.18" width="60" height="30" as="geometry" />
        </mxCell>
        <mxCell id="87LP5JKLMeKJegdfesxn-403" value="5.1kΩ&lt;div&gt;(External)&lt;/div&gt;" style="text;html=1;align=center;verticalAlign=middle;whiteSpace=wrap;rounded=0;" parent="1" vertex="1">
          <mxGeometry x="490" y="105" width="60" height="30" as="geometry" />
        </mxCell>
        <mxCell id="87LP5JKLMeKJegdfesxn-404" value="" style="endArrow=classic;html=1;rounded=0;exitX=0.25;exitY=1;exitDx=0;exitDy=0;entryX=0.772;entryY=0.027;entryDx=0;entryDy=0;entryPerimeter=0;strokeColor=light-dark(#33FF33,#33FF33);" parent="1" source="87LP5JKLMeKJegdfesxn-361" target="87LP5JKLMeKJegdfesxn-392" edge="1">
          <mxGeometry width="50" height="50" relative="1" as="geometry">
            <mxPoint x="455" y="105" as="sourcePoint" />
            <mxPoint x="505" y="55" as="targetPoint" />
          </mxGeometry>
        </mxCell>
        <mxCell id="87LP5JKLMeKJegdfesxn-405" value="" style="endArrow=classic;html=1;rounded=0;exitX=0.25;exitY=1;exitDx=0;exitDy=0;entryX=0.73;entryY=-0.115;entryDx=0;entryDy=0;entryPerimeter=0;strokeColor=light-dark(#33FF33,#33FF33);" parent="1" source="87LP5JKLMeKJegdfesxn-361" target="87LP5JKLMeKJegdfesxn-394" edge="1">
          <mxGeometry width="50" height="50" relative="1" as="geometry">
            <mxPoint x="480" y="180" as="sourcePoint" />
            <mxPoint x="530" y="130" as="targetPoint" />
          </mxGeometry>
        </mxCell>
        <mxCell id="87LP5JKLMeKJegdfesxn-406" value="" style="endArrow=classic;html=1;rounded=0;exitX=0.25;exitY=1;exitDx=0;exitDy=0;entryX=0.722;entryY=0.388;entryDx=0;entryDy=0;entryPerimeter=0;strokeColor=light-dark(#33FF33,#33FF33);" parent="1" source="87LP5JKLMeKJegdfesxn-403" target="87LP5JKLMeKJegdfesxn-393" edge="1">
          <mxGeometry width="50" height="50" relative="1" as="geometry">
            <mxPoint x="480" y="180" as="sourcePoint" />
            <mxPoint x="530" y="130" as="targetPoint" />
          </mxGeometry>
        </mxCell>
        <mxCell id="87LP5JKLMeKJegdfesxn-407" value="&lt;font style=&quot;font-size: 10px;&quot;&gt;Status&lt;/font&gt;" style="text;html=1;align=center;verticalAlign=middle;whiteSpace=wrap;rounded=0;" parent="1" vertex="1">
          <mxGeometry x="949" y="262.25" width="60" height="30" as="geometry" />
        </mxCell>
        <mxCell id="87LP5JKLMeKJegdfesxn-408" value="LCD DISPLAY&lt;div&gt;NMTC-S16204XRGHS10B&lt;/div&gt;" style="rounded=0;whiteSpace=wrap;html=1;strokeColor=default;fillColor=light-dark(#006600,#006600);" parent="1" vertex="1">
          <mxGeometry x="680" y="475.25" width="110" height="284.75" as="geometry" />
        </mxCell>
        <mxCell id="87LP5JKLMeKJegdfesxn-409" value="POTENTIOMETER" style="rounded=0;whiteSpace=wrap;html=1;strokeColor=default;fillColor=#007FFF;" parent="1" vertex="1">
          <mxGeometry x="435.06" y="262.25" width="124.94" height="39.88" as="geometry" />
        </mxCell>
        <mxCell id="87LP5JKLMeKJegdfesxn-410" value="LCD VOLTAGE REGULATOR&lt;div&gt;&lt;span style=&quot;background-color: transparent; color: light-dark(rgb(0, 0, 0), rgb(255, 255, 255));&quot;&gt;MAX1044&lt;/span&gt;&lt;/div&gt;" style="rounded=0;whiteSpace=wrap;html=1;strokeColor=default;fillColor=#007FFF;" parent="1" vertex="1">
          <mxGeometry x="505.0599999999998" y="341.44" width="80" height="120.81" as="geometry" />
        </mxCell>
        <mxCell id="87LP5JKLMeKJegdfesxn-411" value="" style="group" parent="1" vertex="1" connectable="0">
          <mxGeometry x="557.5599999999997" y="462.25" width="45" height="64.5" as="geometry" />
        </mxCell>
        <mxCell id="87LP5JKLMeKJegdfesxn-412" value="" style="pointerEvents=1;verticalLabelPosition=bottom;shadow=0;dashed=0;align=center;html=1;verticalAlign=top;shape=mxgraph.electrical.signal_sources.signal_ground;" parent="87LP5JKLMeKJegdfesxn-411" vertex="1">
          <mxGeometry y="34.5" width="45" height="30" as="geometry" />
        </mxCell>
        <mxCell id="87LP5JKLMeKJegdfesxn-413" value="P3/P7" style="rounded=0;whiteSpace=wrap;html=1;strokeColor=default;fillColor=#007FFF;rotation=90;" parent="87LP5JKLMeKJegdfesxn-411" vertex="1">
          <mxGeometry x="5" y="12.5" width="35" height="10" as="geometry" />
        </mxCell>
        <mxCell id="87LP5JKLMeKJegdfesxn-414" value="" style="pointerEvents=1;verticalLabelPosition=bottom;shadow=0;dashed=0;align=center;html=1;verticalAlign=top;shape=mxgraph.electrical.capacitors.capacitor_5;rotation=90;" parent="1" vertex="1">
          <mxGeometry x="445.9999999999997" y="387.74999999999994" width="29.06" height="16" as="geometry" />
        </mxCell>
        <mxCell id="87LP5JKLMeKJegdfesxn-415" value="" style="pointerEvents=1;verticalLabelPosition=bottom;shadow=0;dashed=0;align=center;html=1;verticalAlign=top;shape=mxgraph.electrical.capacitors.capacitor_5;rotation=90;" parent="1" vertex="1">
          <mxGeometry x="610.5599999999997" y="471.75" width="29.06" height="16" as="geometry" />
        </mxCell>
        <mxCell id="87LP5JKLMeKJegdfesxn-416" value="P4" style="rounded=0;whiteSpace=wrap;html=1;strokeColor=default;fillColor=#007FFF;" parent="1" vertex="1">
          <mxGeometry x="475.0599999999998" y="405.25" width="30" height="10" as="geometry" />
        </mxCell>
        <mxCell id="87LP5JKLMeKJegdfesxn-417" value="P2" style="rounded=0;whiteSpace=wrap;html=1;strokeColor=default;fillColor=#007FFF;" parent="1" vertex="1">
          <mxGeometry x="475.0599999999998" y="376.25" width="30" height="10" as="geometry" />
        </mxCell>
        <mxCell id="87LP5JKLMeKJegdfesxn-418" style="edgeStyle=orthogonalEdgeStyle;rounded=0;orthogonalLoop=1;jettySize=auto;html=1;exitX=1;exitY=0.5;exitDx=0;exitDy=0;entryX=0;entryY=0.5;entryDx=0;entryDy=0;" parent="1" source="87LP5JKLMeKJegdfesxn-419" target="87LP5JKLMeKJegdfesxn-450" edge="1">
          <mxGeometry relative="1" as="geometry">
            <Array as="points">
              <mxPoint x="615" y="350" />
              <mxPoint x="750" y="350" />
            </Array>
          </mxGeometry>
        </mxCell>
        <mxCell id="87LP5JKLMeKJegdfesxn-419" value="P5" style="rounded=0;whiteSpace=wrap;html=1;strokeColor=default;fillColor=#007FFF;" parent="1" vertex="1">
          <mxGeometry x="585.0599999999997" y="446.12" width="30" height="10" as="geometry" />
        </mxCell>
        <mxCell id="87LP5JKLMeKJegdfesxn-420" value="" style="endArrow=none;html=1;rounded=0;entryX=1;entryY=0.5;entryDx=0;entryDy=0;entryPerimeter=0;exitX=0.504;exitY=0.181;exitDx=0;exitDy=0;exitPerimeter=0;" parent="1" source="87LP5JKLMeKJegdfesxn-412" target="87LP5JKLMeKJegdfesxn-415" edge="1">
          <mxGeometry width="50" height="50" relative="1" as="geometry">
            <mxPoint x="575.0599999999997" y="566" as="sourcePoint" />
            <mxPoint x="625.0599999999997" y="516" as="targetPoint" />
            <Array as="points">
              <mxPoint x="625.0599999999997" y="502.25" />
            </Array>
          </mxGeometry>
        </mxCell>
        <mxCell id="87LP5JKLMeKJegdfesxn-421" value="" style="endArrow=none;html=1;rounded=0;exitX=1;exitY=0.5;exitDx=0;exitDy=0;entryX=0;entryY=0.5;entryDx=0;entryDy=0;entryPerimeter=0;" parent="1" source="87LP5JKLMeKJegdfesxn-419" target="87LP5JKLMeKJegdfesxn-415" edge="1">
          <mxGeometry width="50" height="50" relative="1" as="geometry">
            <mxPoint x="625.0599999999997" y="499.40999999999997" as="sourcePoint" />
            <mxPoint x="675.0599999999997" y="451.25" as="targetPoint" />
            <Array as="points">
              <mxPoint x="625.0599999999997" y="451.25" />
            </Array>
          </mxGeometry>
        </mxCell>
        <mxCell id="87LP5JKLMeKJegdfesxn-422" value="" style="endArrow=none;html=1;rounded=0;exitX=1;exitY=0.5;exitDx=0;exitDy=0;exitPerimeter=0;entryX=0;entryY=0.5;entryDx=0;entryDy=0;" parent="1" source="87LP5JKLMeKJegdfesxn-414" target="87LP5JKLMeKJegdfesxn-416" edge="1">
          <mxGeometry width="50" height="50" relative="1" as="geometry">
            <mxPoint x="445.0599999999998" y="432.25" as="sourcePoint" />
            <mxPoint x="495.0599999999998" y="382.25" as="targetPoint" />
          </mxGeometry>
        </mxCell>
        <mxCell id="87LP5JKLMeKJegdfesxn-423" value="" style="endArrow=none;html=1;rounded=0;entryX=0;entryY=0.5;entryDx=0;entryDy=0;exitX=0;exitY=0.5;exitDx=0;exitDy=0;exitPerimeter=0;" parent="1" source="87LP5JKLMeKJegdfesxn-414" target="87LP5JKLMeKJegdfesxn-417" edge="1">
          <mxGeometry width="50" height="50" relative="1" as="geometry">
            <mxPoint x="445.0599999999998" y="432.25" as="sourcePoint" />
            <mxPoint x="495.0599999999998" y="382.25" as="targetPoint" />
          </mxGeometry>
        </mxCell>
        <mxCell id="87LP5JKLMeKJegdfesxn-424" value="&lt;font style=&quot;font-size: 10px;&quot;&gt;10µF&lt;/font&gt;" style="text;html=1;align=center;verticalAlign=middle;whiteSpace=wrap;rounded=0;" parent="1" vertex="1">
          <mxGeometry x="580.0599999999997" y="457.75" width="60" height="30" as="geometry" />
        </mxCell>
        <mxCell id="87LP5JKLMeKJegdfesxn-425" value="&lt;font style=&quot;font-size: 10px;&quot;&gt;10µF&lt;/font&gt;" style="text;html=1;align=center;verticalAlign=middle;whiteSpace=wrap;rounded=0;" parent="1" vertex="1">
          <mxGeometry x="435.06" y="374" width="30" height="12.25" as="geometry" />
        </mxCell>
        <mxCell id="87LP5JKLMeKJegdfesxn-426" value="P5" style="rounded=0;whiteSpace=wrap;html=1;strokeColor=default;fillColor=#007FFF;" parent="1" vertex="1">
          <mxGeometry x="475.0599999999998" y="341.47" width="30" height="10" as="geometry" />
        </mxCell>
        <mxCell id="87LP5JKLMeKJegdfesxn-427" value="" style="endArrow=classic;html=1;rounded=0;exitX=0.25;exitY=1;exitDx=0;exitDy=0;entryX=0;entryY=0.5;entryDx=0;entryDy=0;edgeStyle=orthogonalEdgeStyle;" parent="1" source="87LP5JKLMeKJegdfesxn-409" target="87LP5JKLMeKJegdfesxn-426" edge="1">
          <mxGeometry width="50" height="50" relative="1" as="geometry">
            <mxPoint x="447.56" y="358.75" as="sourcePoint" />
            <mxPoint x="497.56" y="308.75" as="targetPoint" />
          </mxGeometry>
        </mxCell>
        <mxCell id="87LP5JKLMeKJegdfesxn-428" value="JP1" style="rounded=0;whiteSpace=wrap;html=1;strokeColor=default;fillColor=light-dark(#006600,#006600);rotation=90;" parent="1" vertex="1">
          <mxGeometry x="668.75" y="454" width="32.5" height="10" as="geometry" />
        </mxCell>
        <mxCell id="87LP5JKLMeKJegdfesxn-429" value="3.3 V" style="text;html=1;align=center;verticalAlign=middle;whiteSpace=wrap;rounded=0;" parent="1" vertex="1">
          <mxGeometry x="665.4700000000003" y="401.25" width="39.06" height="5" as="geometry" />
        </mxCell>
        <mxCell id="87LP5JKLMeKJegdfesxn-430" value="" style="endArrow=classic;html=1;rounded=0;exitX=0;exitY=0.5;exitDx=0;exitDy=0;" parent="1" source="87LP5JKLMeKJegdfesxn-428" edge="1">
          <mxGeometry width="50" height="50" relative="1" as="geometry">
            <mxPoint x="640" y="460" as="sourcePoint" />
            <mxPoint x="685" y="410" as="targetPoint" />
          </mxGeometry>
        </mxCell>
        <mxCell id="87LP5JKLMeKJegdfesxn-431" style="edgeStyle=orthogonalEdgeStyle;rounded=0;orthogonalLoop=1;jettySize=auto;html=1;exitX=1;exitY=0.5;exitDx=0;exitDy=0;entryX=0;entryY=0.5;entryDx=0;entryDy=0;" parent="1" source="87LP5JKLMeKJegdfesxn-432" target="87LP5JKLMeKJegdfesxn-443" edge="1">
          <mxGeometry relative="1" as="geometry">
            <Array as="points">
              <mxPoint x="450" y="569" />
              <mxPoint x="450" y="530" />
              <mxPoint x="620" y="530" />
              <mxPoint x="620" y="512" />
            </Array>
          </mxGeometry>
        </mxCell>
        <mxCell id="87LP5JKLMeKJegdfesxn-432" value="P14" style="rounded=0;whiteSpace=wrap;html=1;strokeColor=default;fillColor=#007FFF;rotation=0;" parent="1" vertex="1">
          <mxGeometry x="335.06" y="564.3100000000001" width="35" height="10" as="geometry" />
        </mxCell>
        <mxCell id="87LP5JKLMeKJegdfesxn-433" style="edgeStyle=orthogonalEdgeStyle;rounded=0;orthogonalLoop=1;jettySize=auto;html=1;exitX=1;exitY=0.25;exitDx=0;exitDy=0;entryX=0;entryY=0.75;entryDx=0;entryDy=0;" parent="1" source="87LP5JKLMeKJegdfesxn-434" target="87LP5JKLMeKJegdfesxn-444" edge="1">
          <mxGeometry relative="1" as="geometry">
            <Array as="points">
              <mxPoint x="470" y="589" />
              <mxPoint x="470" y="540" />
            </Array>
          </mxGeometry>
        </mxCell>
        <mxCell id="87LP5JKLMeKJegdfesxn-434" value="P13" style="rounded=0;whiteSpace=wrap;html=1;strokeColor=default;fillColor=#007FFF;rotation=0;" parent="1" vertex="1">
          <mxGeometry x="335.06" y="586.7500000000001" width="35" height="10" as="geometry" />
        </mxCell>
        <mxCell id="87LP5JKLMeKJegdfesxn-435" style="edgeStyle=orthogonalEdgeStyle;rounded=0;orthogonalLoop=1;jettySize=auto;html=1;exitX=1;exitY=0.5;exitDx=0;exitDy=0;entryX=0;entryY=0.75;entryDx=0;entryDy=0;" parent="1" source="87LP5JKLMeKJegdfesxn-436" target="87LP5JKLMeKJegdfesxn-445" edge="1">
          <mxGeometry relative="1" as="geometry">
            <Array as="points">
              <mxPoint x="490" y="618" />
              <mxPoint x="490" y="561" />
            </Array>
          </mxGeometry>
        </mxCell>
        <mxCell id="87LP5JKLMeKJegdfesxn-436" value="P11" style="rounded=0;whiteSpace=wrap;html=1;strokeColor=default;fillColor=#007FFF;rotation=0;" parent="1" vertex="1">
          <mxGeometry x="336.25" y="612.6300000000001" width="35" height="10" as="geometry" />
        </mxCell>
        <mxCell id="87LP5JKLMeKJegdfesxn-437" style="edgeStyle=orthogonalEdgeStyle;rounded=0;orthogonalLoop=1;jettySize=auto;html=1;exitX=1;exitY=0.25;exitDx=0;exitDy=0;entryX=0;entryY=0.75;entryDx=0;entryDy=0;" parent="1" source="87LP5JKLMeKJegdfesxn-438" target="87LP5JKLMeKJegdfesxn-446" edge="1">
          <mxGeometry relative="1" as="geometry" />
        </mxCell>
        <mxCell id="87LP5JKLMeKJegdfesxn-438" value="P10" style="rounded=0;whiteSpace=wrap;html=1;strokeColor=default;fillColor=#007FFF;rotation=0;" parent="1" vertex="1">
          <mxGeometry x="336.25" y="635.8100000000001" width="35" height="10" as="geometry" />
        </mxCell>
        <mxCell id="87LP5JKLMeKJegdfesxn-439" style="edgeStyle=orthogonalEdgeStyle;rounded=0;orthogonalLoop=1;jettySize=auto;html=1;exitX=1;exitY=0.5;exitDx=0;exitDy=0;entryX=0;entryY=1;entryDx=0;entryDy=0;" parent="1" source="87LP5JKLMeKJegdfesxn-440" target="87LP5JKLMeKJegdfesxn-449" edge="1">
          <mxGeometry relative="1" as="geometry">
            <Array as="points">
              <mxPoint x="223" y="750" />
              <mxPoint x="610" y="750" />
              <mxPoint x="610" y="628" />
              <mxPoint x="648" y="628" />
            </Array>
          </mxGeometry>
        </mxCell>
        <mxCell id="87LP5JKLMeKJegdfesxn-440" value="P8" style="rounded=0;whiteSpace=wrap;html=1;strokeColor=default;fillColor=#007FFF;rotation=90;" parent="1" vertex="1">
          <mxGeometry x="205.69" y="667.8800000000001" width="35" height="10" as="geometry" />
        </mxCell>
        <mxCell id="87LP5JKLMeKJegdfesxn-441" style="edgeStyle=orthogonalEdgeStyle;rounded=0;orthogonalLoop=1;jettySize=auto;html=1;exitX=1;exitY=0.5;exitDx=0;exitDy=0;entryX=0;entryY=0.5;entryDx=0;entryDy=0;" parent="1" source="87LP5JKLMeKJegdfesxn-442" target="87LP5JKLMeKJegdfesxn-448" edge="1">
          <mxGeometry relative="1" as="geometry">
            <Array as="points">
              <mxPoint x="256" y="730" />
              <mxPoint x="454" y="730" />
              <mxPoint x="454" y="660" />
              <mxPoint x="550" y="660" />
              <mxPoint x="550" y="610" />
            </Array>
          </mxGeometry>
        </mxCell>
        <mxCell id="87LP5JKLMeKJegdfesxn-442" value="P9" style="rounded=0;whiteSpace=wrap;html=1;strokeColor=default;fillColor=#007FFF;rotation=90;" parent="1" vertex="1">
          <mxGeometry x="238.19" y="667.8800000000001" width="35" height="10" as="geometry" />
        </mxCell>
        <mxCell id="87LP5JKLMeKJegdfesxn-443" value="DB4" style="rounded=0;whiteSpace=wrap;html=1;strokeColor=default;fillColor=light-dark(#006600,#006600);rotation=0;" parent="1" vertex="1">
          <mxGeometry x="647.5" y="506.75" width="32.5" height="10" as="geometry" />
        </mxCell>
        <mxCell id="87LP5JKLMeKJegdfesxn-444" value="DB5" style="rounded=0;whiteSpace=wrap;html=1;strokeColor=default;fillColor=light-dark(#006600,#006600);rotation=0;" parent="1" vertex="1">
          <mxGeometry x="647.5" y="532.13" width="32.5" height="10" as="geometry" />
        </mxCell>
        <mxCell id="87LP5JKLMeKJegdfesxn-445" value="DB6" style="rounded=0;whiteSpace=wrap;html=1;strokeColor=default;fillColor=light-dark(#006600,#006600);rotation=0;" parent="1" vertex="1">
          <mxGeometry x="647.5" y="553.75" width="32.5" height="10" as="geometry" />
        </mxCell>
        <mxCell id="87LP5JKLMeKJegdfesxn-446" value="DB7" style="rounded=0;whiteSpace=wrap;html=1;strokeColor=default;fillColor=light-dark(#006600,#006600);rotation=0;" parent="1" vertex="1">
          <mxGeometry x="647.5" y="574.31" width="32.5" height="10" as="geometry" />
        </mxCell>
        <mxCell id="87LP5JKLMeKJegdfesxn-447" value="P1" style="rounded=0;whiteSpace=wrap;html=1;strokeColor=default;fillColor=light-dark(#006600,#006600);rotation=90;" parent="1" vertex="1">
          <mxGeometry x="704.53" y="454" width="32.5" height="10" as="geometry" />
        </mxCell>
        <mxCell id="87LP5JKLMeKJegdfesxn-448" value="RS" style="rounded=0;whiteSpace=wrap;html=1;strokeColor=default;fillColor=light-dark(#006600,#006600);rotation=0;" parent="1" vertex="1">
          <mxGeometry x="647.5" y="604.56" width="32.5" height="10" as="geometry" />
        </mxCell>
        <mxCell id="87LP5JKLMeKJegdfesxn-449" value="EN" style="rounded=0;whiteSpace=wrap;html=1;strokeColor=default;fillColor=light-dark(#006600,#006600);rotation=0;" parent="1" vertex="1">
          <mxGeometry x="647.5" y="622.63" width="32.5" height="10" as="geometry" />
        </mxCell>
        <mxCell id="87LP5JKLMeKJegdfesxn-450" value="P3" style="rounded=0;whiteSpace=wrap;html=1;strokeColor=default;fillColor=light-dark(#006600,#006600);rotation=90;" parent="1" vertex="1">
          <mxGeometry x="733.28" y="454" width="32.5" height="10" as="geometry" />
        </mxCell>
        <mxCell id="87LP5JKLMeKJegdfesxn-451" value="R/W" style="rounded=0;whiteSpace=wrap;html=1;strokeColor=default;fillColor=light-dark(#006600,#006600);rotation=0;" parent="1" vertex="1">
          <mxGeometry x="647.5" y="655.81" width="32.5" height="10" as="geometry" />
        </mxCell>
        <mxCell id="87LP5JKLMeKJegdfesxn-452" value="P1" style="rounded=0;whiteSpace=wrap;html=1;strokeColor=default;fillColor=light-dark(#006600,#006600);rotation=90;" parent="1" vertex="1">
          <mxGeometry x="768.75" y="771.25" width="32.5" height="10" as="geometry" />
        </mxCell>
        <mxCell id="87LP5JKLMeKJegdfesxn-453" value="" style="pointerEvents=1;verticalLabelPosition=bottom;shadow=0;dashed=0;align=center;html=1;verticalAlign=top;shape=mxgraph.electrical.signal_sources.signal_ground;fontColor=light-dark(#FFFFFF,#000000);" parent="1" vertex="1">
          <mxGeometry x="762.5" y="792.5" width="45" height="30" as="geometry" />
        </mxCell>
        <mxCell id="87LP5JKLMeKJegdfesxn-454" style="edgeStyle=orthogonalEdgeStyle;rounded=0;orthogonalLoop=1;jettySize=auto;html=1;exitX=0.5;exitY=0;exitDx=0;exitDy=0;exitPerimeter=0;entryX=0;entryY=0.5;entryDx=0;entryDy=0;" parent="1" source="87LP5JKLMeKJegdfesxn-455" target="87LP5JKLMeKJegdfesxn-451" edge="1">
          <mxGeometry relative="1" as="geometry">
            <Array as="points">
              <mxPoint x="630" y="747" />
              <mxPoint x="630" y="661" />
            </Array>
          </mxGeometry>
        </mxCell>
        <mxCell id="87LP5JKLMeKJegdfesxn-455" value="" style="pointerEvents=1;verticalLabelPosition=bottom;shadow=0;dashed=0;align=center;html=1;verticalAlign=top;shape=mxgraph.electrical.signal_sources.signal_ground;fontColor=light-dark(#FFFFFF,#000000);" parent="1" vertex="1">
          <mxGeometry x="623.75" y="746.75" width="45" height="30" as="geometry" />
        </mxCell>
        <mxCell id="87LP5JKLMeKJegdfesxn-456" style="edgeStyle=orthogonalEdgeStyle;rounded=0;orthogonalLoop=1;jettySize=auto;html=1;exitX=0.5;exitY=0;exitDx=0;exitDy=0;exitPerimeter=0;entryX=0;entryY=0.5;entryDx=0;entryDy=0;" parent="1" source="87LP5JKLMeKJegdfesxn-457" target="87LP5JKLMeKJegdfesxn-447" edge="1">
          <mxGeometry relative="1" as="geometry" />
        </mxCell>
        <mxCell id="87LP5JKLMeKJegdfesxn-457" value="" style="pointerEvents=1;verticalLabelPosition=bottom;shadow=0;dashed=0;align=center;html=1;verticalAlign=top;shape=mxgraph.electrical.signal_sources.signal_ground;fontColor=light-dark(#FFFFFF,#000000);rotation=-180;" parent="1" vertex="1">
          <mxGeometry x="710" y="403.75" width="20" height="22.25" as="geometry" />
        </mxCell>
        <mxCell id="87LP5JKLMeKJegdfesxn-458" value="" style="endArrow=classic;html=1;rounded=0;exitX=1;exitY=0.75;exitDx=0;exitDy=0;" parent="1" source="87LP5JKLMeKJegdfesxn-409" edge="1">
          <mxGeometry width="50" height="50" relative="1" as="geometry">
            <mxPoint x="585.06" y="340.84000000000003" as="sourcePoint" />
            <mxPoint x="580" y="270" as="targetPoint" />
            <Array as="points">
              <mxPoint x="580" y="292" />
            </Array>
          </mxGeometry>
        </mxCell>
        <mxCell id="87LP5JKLMeKJegdfesxn-459" value="&lt;font style=&quot;font-size: 10px;&quot;&gt;~1.8V&lt;/font&gt;" style="text;html=1;align=center;verticalAlign=middle;whiteSpace=wrap;rounded=0;" parent="1" vertex="1">
          <mxGeometry x="565.06" y="260" width="30" height="12.25" as="geometry" />
        </mxCell>
        <mxCell id="87LP5JKLMeKJegdfesxn-460" value="TEMP SENSOR&lt;div&gt;(LM19)&lt;/div&gt;" style="rounded=0;whiteSpace=wrap;html=1;strokeColor=default;fillColor=#007FFF;" parent="1" vertex="1">
          <mxGeometry x="30" y="379.97" width="90" height="43.75" as="geometry" />
        </mxCell>
        <mxCell id="87LP5JKLMeKJegdfesxn-461" value="P5.0" style="rounded=0;whiteSpace=wrap;html=1;strokeColor=default;fillColor=#007FFF;" parent="1" vertex="1">
          <mxGeometry x="170" y="380.12" width="30" height="10" as="geometry" />
        </mxCell>
        <mxCell id="87LP5JKLMeKJegdfesxn-463" value="" style="endArrow=classic;html=1;rounded=0;exitX=0;exitY=0.25;exitDx=0;exitDy=0;" parent="1" source="87LP5JKLMeKJegdfesxn-460" edge="1">
          <mxGeometry width="50" height="50" relative="1" as="geometry">
            <mxPoint x="10" y="375.5" as="sourcePoint" />
            <mxPoint x="20" y="370" as="targetPoint" />
            <Array as="points">
              <mxPoint x="20" y="391" />
            </Array>
          </mxGeometry>
        </mxCell>
        <mxCell id="87LP5JKLMeKJegdfesxn-464" value="3.3 V" style="text;html=1;align=center;verticalAlign=middle;whiteSpace=wrap;rounded=0;container=0;" parent="1" vertex="1">
          <mxGeometry x="10" y="360.5" width="38.50200000000013" height="5" as="geometry" />
        </mxCell>
        <mxCell id="87LP5JKLMeKJegdfesxn-465" value="" style="pointerEvents=1;verticalLabelPosition=bottom;shadow=0;dashed=0;align=center;html=1;verticalAlign=top;shape=mxgraph.electrical.signal_sources.signal_ground;" parent="1" vertex="1">
          <mxGeometry x="75" y="423.72" width="45" height="30" as="geometry" />
        </mxCell>
        <mxCell id="87LP5JKLMeKJegdfesxn-466" value="" style="endArrow=classic;html=1;rounded=0;exitX=1;exitY=0.116;exitDx=0;exitDy=0;exitPerimeter=0;entryX=0;entryY=0.5;entryDx=0;entryDy=0;" parent="1" source="87LP5JKLMeKJegdfesxn-460" target="87LP5JKLMeKJegdfesxn-461" edge="1">
          <mxGeometry width="50" height="50" relative="1" as="geometry">
            <mxPoint x="120" y="390.12" as="sourcePoint" />
            <mxPoint x="170" y="340.12" as="targetPoint" />
          </mxGeometry>
        </mxCell>
      </root>
    </mxGraphModel>
  </diagram>
</mxfile>
